<svg fill="#8a8a8a" xmlns="http://www.w3.org/2000/svg" viewBox="0 0 928.86 367.1"><defs><style>.cls-1{fill:#8a8a8a;}</style></defs><g id="Capa_2" data-name="Capa 2"><g id="Capa_1-2" data-name="Capa 1"><path class="cls-1" d="M199.87,117.87c-20-11.69-42.6-17.62-67.1-17.62s-47.17,5.91-67.45,17.57a127.54,127.54,0,0,0-48,48.25C5.83,186.34,0,209.16,0,233.89s5.4,47.33,16,67.5a122.9,122.9,0,0,0,44.6,48.17c18.91,11.64,40.25,17.54,63.41,17.54a119.61,119.61,0,0,0,73.45-24.52,33.3,33.3,0,0,0,8.19,13.25,34.7,34.7,0,0,0,59.41-24.74v-97.2c0-24.75-5.91-47.59-17.56-67.88A130.13,130.13,0,0,0,199.87,117.87ZM99.78,173.29a62,62,0,0,1,33-8.87,62.14,62.14,0,0,1,56.13,33.51c5.68,10.61,8.55,22.71,8.55,36s-2.86,25.25-8.52,35.7a62.48,62.48,0,0,1-56.16,33.35,61.93,61.93,0,0,1-33-8.88,64.12,64.12,0,0,1-23.44-24.57c-5.85-10.57-8.69-22.21-8.69-35.6S70.5,208.76,76.37,198A63.83,63.83,0,0,1,99.78,173.29Z"/><path class="cls-1" d="M488,117.79c-18.91-11.64-40.25-17.54-63.42-17.54A119.51,119.51,0,0,0,353,123.43V34.7c0-9.93-3.37-18.55-9.75-24.94S328.19,0,318.26,0a34.59,34.59,0,0,0-24.57,9.6c-6.63,6.4-10.13,15.08-10.13,25.1V233.46c0,24.78,5.91,47.62,17.57,67.89a130,130,0,0,0,47.68,48.14c20,11.68,42.56,17.61,67.09,17.61s47.18-5.91,67.45-17.57a127.37,127.37,0,0,0,48-48.25c11.49-20.26,17.32-43.08,17.32-67.82s-5.4-47.31-16-67.49C521.87,145.59,506.87,129.38,488,117.79ZM448.89,294.06a63.42,63.42,0,0,1-89.12-24.64c-5.68-10.6-8.56-22.7-8.56-36,0-13.43,2.79-25.1,8.52-35.69a62.65,62.65,0,0,1,23.18-24.48,65.78,65.78,0,0,1,66,0,64.23,64.23,0,0,1,23.44,24.58c5.84,10.57,8.69,22.22,8.69,35.59a73.91,73.91,0,0,1-8.72,35.86A63.84,63.84,0,0,1,448.89,294.06Z"/><path class="cls-1" d="M771.72,117.79c-18.91-11.64-40.25-17.54-63.41-17.54a119.61,119.61,0,0,0-71.66,23.18V34.7c0-9.93-3.37-18.55-9.74-24.94S611.88,0,602,0a34.61,34.61,0,0,0-24.57,9.6c-6.62,6.4-10.12,15.08-10.12,25.1V233.46c0,24.78,5.91,47.62,17.57,67.89a130,130,0,0,0,47.67,48.14c20,11.68,42.57,17.61,67.09,17.61s47.18-5.91,67.46-17.57a127.52,127.52,0,0,0,48-48.25c11.49-20.26,17.31-43.08,17.31-67.82s-5.4-47.31-16-67.49C805.56,145.59,790.56,129.38,771.72,117.79ZM732.59,294.06a63.43,63.43,0,0,1-89.13-24.64c-5.68-10.6-8.55-22.7-8.55-36,0-13.43,2.79-25.1,8.52-35.69a62.7,62.7,0,0,1,23.17-24.48,65.8,65.8,0,0,1,66,0A64.3,64.3,0,0,1,756,197.87c5.84,10.57,8.68,22.22,8.68,35.59A73.8,73.8,0,0,1,756,269.32,63.82,63.82,0,0,1,732.59,294.06Z"/><path class="cls-1" d="M887.63,88.14A40.4,40.4,0,0,0,916.71,76a40.89,40.89,0,0,0,0-58.17,40.89,40.89,0,0,0-58.17,0,40.89,40.89,0,0,0,0,58.17A40.42,40.42,0,0,0,887.63,88.14Z"/><path class="cls-1" d="M887.63,102a34.59,34.59,0,0,0-24.57,9.6c-6.63,6.4-10.13,15.07-10.13,25.09v194a34.08,34.08,0,0,0,34.7,34.7c10,0,18.69-3.51,25.09-10.13a34.6,34.6,0,0,0,9.61-24.57v-194c0-9.92-3.37-18.55-9.75-24.93S897.55,102,887.63,102Z"/></g></g></svg>