<svg xmlns="http://www.w3.org/2000/svg" viewBox="0 0 1080 362.47"><g id="Capa_2" data-name="Capa 2"><g id="Capa_1-2" data-name="Capa 1"><path d="M1076.56,95.94c-17.08-20.25-38.54-37.12-62.92-47.64a153,153,0,0,0-90.43-10.13C846.48,53,794.79,124.82,788.75,200c-11.79-26.55-36.1-48.43-66-49.37-32.34-1.67-59.51,21.71-71.46,50.37-3.19-33.12-18.76-65.6-45.95-85.55-28.3-21.32-67.83-23.1-98.11-4.59C490.32,121,476.81,136,467.29,153.19,453.51,103.4,414.8,58.68,361.65,52.58a106,106,0,0,0-28.62.59c-1.52.28-4.25.51-5.66.95l-5.57,1.37-2.79.7c-.93.23-1.81.6-2.72.9-33.73,10.91-59.81,37.34-75.08,68.8-13.82-57.79-55.7-110.95-116-123.17-42.9-9.33-88.81,6-120.33,35.89a15.11,15.11,0,1,0,21,21.71C82.78,2.51,165.61,21.17,206.09,87.71c13.09,21,21.12,45.21,24.27,70.1,1.06,8.48,13.15,9.19,15.26,1,11.27-44.85,46.86-86.15,94.62-91,64.18-6,110.58,53.35,116.42,112.74.85,8.57,12.93,9.61,15.21,1.32,10.6-43.15,51.07-81,97.58-72.3,34.35,5.92,60.72,35.13,71.55,67.29a130,130,0,0,1,6.82,34.28,2,2,0,0,0,3.95.54c4.93-15.58,13.83-30,26.24-40.49s28.36-16.45,44.5-15.54c33.3,1.45,58.58,30.67,65.74,61.67a3.06,3.06,0,0,0,6-.63C797.42,142.27,850.1,67.32,926.38,57c51-7,98.77,16.31,129,57.19C1068.11,127.8,1088.05,110.4,1076.56,95.94Z"/><polygon points="36.33 254.99 36.33 247.04 12.43 247.04 12.43 286.85 36.96 286.85 36.96 278.84 21.04 278.84 21.04 270.66 34.85 270.66 34.85 262.86 21.04 262.86 21.04 254.99 36.33 254.99"/><polygon points="76.04 261.97 94.08 286.85 101.28 286.85 101.28 247.04 92.82 247.04 92.82 271.32 75.37 247.04 67.59 247.04 67.59 286.85 76.04 286.85 76.04 261.97"/><path d="M152,254.4A10.94,10.94,0,0,1,162.62,262h8.63A19.19,19.19,0,0,0,152,246.18c-11.69,0-20.56,9-20.56,20.81s8.87,20.72,20.56,20.72c9.86,0,17.59-6.58,19.39-16.43H162.7A10.8,10.8,0,0,1,152,279.49c-6.74,0-11.83-5.34-11.83-12.5S145.25,254.4,152,254.4Z"/><polygon points="151.99 287.71 151.99 287.71 151.99 287.71 151.99 287.71"/><path d="M200.54,247v24.83c0,9.33,7,15.85,16.45,15.85s16.45-6.52,16.45-15.85V247h-8.63v24.43c0,5-3.24,8.12-7.82,8.12s-7.82-3.15-7.82-8.12V247Z"/><polygon points="289.4 254.99 289.4 247.04 265.5 247.04 265.5 286.85 290.03 286.85 290.03 278.84 274.11 278.84 274.11 270.66 287.92 270.66 287.92 262.86 274.11 262.86 274.11 254.99 289.4 254.99"/><polygon points="347.14 286.85 354.35 286.85 354.35 247.04 345.89 247.04 345.89 271.32 328.44 247.04 320.66 247.04 320.66 286.85 329.11 286.85 329.11 261.97 347.14 286.85"/><polygon points="403.17 286.85 403.17 255.03 414.24 255.03 414.24 247.04 383.49 247.04 383.49 255.03 394.56 255.03 394.56 286.85 403.17 286.85"/><path d="M473.38,260.21c0-7.68-5.95-13.17-13.92-13.17H443.38v39.81H452V273.26h5.53l7.77,13.59h9.63l-8.81-15.05A12.64,12.64,0,0,0,473.38,260.21Zm-14.49,5.09H452V255h6.89c3.61,0,5.76,2.18,5.76,5.16S462.5,265.3,458.89,265.3Z"/><path d="M522.91,246.17c-12.15,0-21.25,9-21.25,20.77s9.1,20.78,21.25,20.78,21.15-8.91,21.15-20.78S535,246.17,522.91,246.17Zm0,33.42a12.65,12.65,0,1,1,12.42-12.65A12.36,12.36,0,0,1,522.91,279.59Z"/><polygon points="637.64 286.85 644.84 286.85 644.84 247.04 636.38 247.04 636.38 271.32 618.93 247.04 611.15 247.04 611.15 286.85 619.61 286.85 619.61 261.97 637.64 286.85"/><path d="M700.94,279.3l2.78,7.55h9.35L697,247h-8.14l-15.6,39.81h9.14l2.73-7.55Zm-8-21.74,5.25,14.23H687.79Z"/><path d="M768.81,271.28a10.79,10.79,0,0,1-10.7,8.21c-6.74,0-11.84-5.34-11.84-12.5s5.1-12.59,11.84-12.59A10.94,10.94,0,0,1,768.74,262h8.63a19.19,19.19,0,0,0-19.26-15.86c-11.7,0-20.56,9-20.56,20.81s8.86,20.72,20.56,20.72c9.86,0,17.59-6.58,19.39-16.43Z"/><rect x="807.07" y="247.04" width="8.62" height="39.82"/><path d="M867.08,246.17c-12.15,0-21.25,9-21.25,20.77s9.1,20.78,21.25,20.78,21.16-8.91,21.16-20.78S879.19,246.17,867.08,246.17Zm0,33.42a12.65,12.65,0,1,1,12.43-12.65A12.36,12.36,0,0,1,867.08,279.59Z"/><polygon points="944.85 286.85 952.05 286.85 952.05 247.04 943.6 247.04 943.6 271.32 926.14 247.04 918.36 247.04 918.36 286.85 926.82 286.85 926.82 261.97 944.85 286.85"/><path d="M1008.15,279.3l2.78,7.55h9.35L1004.18,247H996l-15.6,39.81h9.14l2.73-7.55Zm-7.95-21.74,5.24,14.23H995Z"/><polygon points="1048.7 247.04 1048.7 286.85 1072.6 286.85 1072.6 278.86 1057.32 278.86 1057.32 247.04 1048.7 247.04"/><path d="M35.83,304.49H14.36v56.74H35.83c16.63,0,28.77-12,28.77-28.44S52.53,304.49,35.83,304.49Zm-.31,45.35H26.64V315.89h8.88c9.75,0,16.51,6.92,16.51,16.9S45.27,349.84,35.52,349.84Z"/><polygon points="86.7 338.15 106.39 338.15 106.39 327.04 86.7 327.04 86.7 315.83 108.49 315.83 108.49 304.49 74.43 304.49 74.43 361.23 109.39 361.23 109.39 349.81 86.7 349.81 86.7 338.15"/><path d="M165.13,350.74c-9.6,0-16.86-7.61-16.86-17.81S155.53,315,165.13,315a15.58,15.58,0,0,1,15.15,10.88h12.31a27.38,27.38,0,0,0-27.46-22.6c-16.66,0-29.3,12.77-29.3,29.66s12.64,29.53,29.3,29.53h0c14.05,0,25.07-9.39,27.63-23.42H180.39C178.35,346.23,172.6,350.74,165.13,350.74Z"/><path d="M235.62,339.31c0,7.09-4.62,11.58-11.15,11.58s-11.15-4.49-11.15-11.58V304.49H201v35.39c0,13.3,10,22.59,23.44,22.59s23.44-9.29,23.44-22.59V304.49H235.62Z"/><polygon points="272.57 304.49 260.3 304.49 260.3 361.23 294.35 361.23 294.35 349.84 272.57 349.84 272.57 304.49"/><polygon points="290.83 315.88 306.61 315.88 306.61 361.23 318.89 361.23 318.89 315.88 334.66 315.88 334.66 304.49 290.83 304.49 290.83 315.88"/><rect x="342.9" y="304.49" width="12.28" height="56.74"/><polygon points="390.24 344.6 375.89 304.49 362.34 304.49 384.54 361.23 396.11 361.23 417.57 304.49 404.17 304.49 390.24 344.6"/><path d="M449.59,303.25c-17.32,0-30.28,12.77-30.28,29.61s13,29.61,30.28,29.61,30.15-12.7,30.15-29.61S466.84,303.25,449.59,303.25Zm0,47.64a18,18,0,0,1,0-36.05c10.11,0,17.71,7.73,17.71,18S459.7,350.89,449.59,350.89Z"/><path d="M510.19,326.56c-6-1.43-10.93-2.64-10.93-6.64,0-3.71,4-5.4,8-5.4,4.59,0,8.62,2.29,8.62,7.18H528c0-11.3-7.41-18.27-20.46-18.27-12.56,0-20.58,6.13-20.58,17,0,12.22,10.39,14.7,18.95,16.81,6.15,1.44,11.32,2.65,11.32,7.05,0,4.23-4.51,6.67-9.13,6.67-5,0-9.55-2.65-9.55-8.13H486.19c0,12.19,9,19.51,22,19.51,11.74,0,21.51-5.95,21.51-18.2C529.71,331.45,518.84,328.75,510.19,326.56Z"/><path d="M580.75,304.49H558.92v56.74h12.27V343.52h9.56c11.39,0,20-8.33,20-19.52S592.13,304.49,580.75,304.49Zm-.54,27.66h-9V315.86h9a8.15,8.15,0,0,1,0,16.29Z"/><path d="M652.07,323.26c0-10.94-8.47-18.77-19.83-18.77h-22.9v56.74h12.27V341.87h7.88l11.08,19.36h13.72l-12.56-21.45A18,18,0,0,0,652.07,323.26Zm-20.64,7.27h-9.82v-14.7h9.82c5.14,0,8.21,3.1,8.21,7.35S636.57,330.53,631.43,330.53Z"/><path d="M689.36,303.25c-17.31,0-30.27,12.77-30.27,29.61s13,29.61,30.27,29.61,30.15-12.7,30.15-29.61S706.61,303.25,689.36,303.25Zm0,47.64a18,18,0,0,1,0-36.05c10.11,0,17.71,7.73,17.71,18S699.47,350.89,689.36,350.89Z"/><polygon points="722.64 315.88 738.41 315.88 738.41 361.23 750.69 361.23 750.69 315.88 766.47 315.88 766.47 304.49 722.64 304.49 722.64 315.88"/><polygon points="786.98 338.15 806.66 338.15 806.66 327.04 786.98 327.04 786.98 315.83 808.76 315.83 808.76 304.49 774.7 304.49 774.7 361.23 809.66 361.23 809.66 349.81 786.98 349.81 786.98 338.15"/><path d="M844,341h17c-2.1,5.85-8.47,9.73-15.79,9.73-10.23,0-17-7.32-17-17.82s6.9-17.94,17-17.94c7.13,0,13.14,3.8,15.57,9.89h12.65c-2.65-12.69-14.36-21.61-28.45-21.61-16.8,0-29.16,12.67-29.16,29.66s12.69,29.54,29.39,29.54c17,0,28.92-13.09,29-30.87H844Z"/><rect x="883.72" y="304.49" width="12.28" height="56.74"/><path d="M930.48,304.49H909v56.74h21.47c16.63,0,28.78-12,28.78-28.44S947.18,304.49,930.48,304.49Zm-.31,45.35h-8.88V315.89h8.88c9.75,0,16.51,6.92,16.51,16.9S939.92,349.84,930.17,349.84Z"/><path d="M996,303.25c-17.31,0-30.28,12.77-30.28,29.61s13,29.61,30.28,29.61,30.15-12.7,30.15-29.61S1013.26,303.25,996,303.25Zm0,47.64a18,18,0,0,1,0-36.05c10.11,0,17.71,7.73,17.71,18S1006.12,350.89,996,350.89Z"/><path d="M1056.62,326.56c-6-1.43-10.94-2.64-10.94-6.64,0-3.71,4-5.4,8-5.4,4.59,0,8.62,2.29,8.62,7.18h12.13c0-11.3-7.41-18.27-20.45-18.27-12.57,0-20.59,6.13-20.59,17,0,12.22,10.39,14.7,18.95,16.81,6.15,1.44,11.33,2.65,11.33,7.05,0,4.23-4.52,6.67-9.14,6.67-5,0-9.55-2.65-9.55-8.13h-12.37c0,12.19,9,19.51,22,19.51,11.74,0,21.51-5.95,21.51-18.2C1076.13,331.45,1065.27,328.75,1056.62,326.56Z"/></g></g></svg>