<svg fill="#8a8a8a" xmlns="http://www.w3.org/2000/svg" viewBox="0 0 1080 219.66"><g id="Capa_2" data-name="Capa 2"><g id="Capa_1-2" data-name="Capa 1"><path d="M1076.56,95.94c-17.08-20.25-38.54-37.12-62.92-47.64a153,153,0,0,0-90.43-10.13C846.48,53,794.79,124.82,788.75,200c-11.79-26.55-36.1-48.43-66-49.37-32.34-1.67-59.51,21.71-71.46,50.37-3.19-33.12-18.76-65.6-45.95-85.55-28.3-21.32-67.83-23.1-98.11-4.59C490.32,121,476.81,136,467.29,153.19,453.51,103.4,414.8,58.68,361.65,52.58a106,106,0,0,0-28.62.59c-1.52.28-4.25.51-5.66.95l-5.57,1.37-2.79.7c-.93.23-1.81.6-2.72.9-33.73,10.91-59.81,37.34-75.08,68.8-13.82-57.79-55.7-110.95-116-123.17-42.9-9.33-88.81,6-120.33,35.89a15.11,15.11,0,1,0,21,21.71C82.78,2.51,165.61,21.17,206.09,87.71c13.09,21,21.12,45.21,24.27,70.1,1.06,8.48,13.15,9.19,15.26,1,11.27-44.85,46.86-86.15,94.62-91,64.18-6,110.58,53.35,116.42,112.74.85,8.57,12.93,9.61,15.21,1.32,10.6-43.15,51.07-81,97.58-72.3,34.35,5.92,60.72,35.13,71.55,67.29a130,130,0,0,1,6.82,34.28,2,2,0,0,0,3.95.54c4.93-15.58,13.83-30,26.24-40.49s28.36-16.45,44.5-15.54c33.3,1.45,58.58,30.67,65.74,61.67a3.06,3.06,0,0,0,6-.63C797.42,142.27,850.1,67.32,926.38,57c51-7,98.77,16.31,129,57.19C1068.11,127.8,1088.05,110.4,1076.56,95.94Z"/></g></g></svg>