<svg xmlns="http://www.w3.org/2000/svg" viewBox="0 0 1080 221.28"><defs><style>.cls-1{fill-rule:evenodd;}</style></defs><g id="Capa_2" data-name="Capa 2"><g id="Capa_1-2" data-name="Capa 1"><path class="cls-1" d="M851,46.52s3.65-4.85,6-6.58,4.43-3.23,3.39-5.28S855.19,29,854,27.8s-4.24-2.26-7.73-.26-21.74,23.3-21.74,23.3S808,54.42,799.73,57.43s-14.35,6.19-15,9.12,1,5.28,3,5.68,5.2-2.53,7.41-3.76S815.35,63,815.35,63s-17.68,23-28.88,44.43-8.9,34.29-4.42,38.9,14.4,1.47,24.93,1.1,44.88,0,84.75,7.86,113.17,35.55,127.71,43.26,41.07,23.09,47.76,22.74,12.8-4.21,12.8-11.06-2.64-10.43-8.69-13.76-31.26-14.8-85.18-33-130-29.84-148.3-29.78-34.18-1-36-2.94-7.9-6.1,11.2-33.44S841,59,841,59c20.13-2.08,39.65-5.14,60-6.29a67.7,67.7,0,0,0,9.81-.75c1.28-.26,3.81-3,4.27-5.76s-2.3-3.84-20-3.76S851,46.52,851,46.52m-79.12,46c-4.38-1.55-19.74,9.2-28,21.92s-13.38,25.42-5.22,30.46,19.89-4.86,25.12-9.31,9.89-3.6,10,.88-5.15,9.23-13,12.32-25.89,6.32-35.71-1.95-9.2-14.5-7-23.68,13.87-25.7,23.58-32,19.41-9.33,30.4-8.93,17.89,9.63,13.63,16.7-11,9.7-14.46,6,2.3-6.1.64-12.4ZM660.63,90.63S675,72,681.48,66.28,693,53,683.48,48.5s-16.48.58-27.44,14-23.3,37.84-28.56,50.08-7.44,20.62-5.78,27.55,7.46,11.15,10.48,11.6,6.24.45,6.48-2.91-4.35-4-.78-17,22.78-41.28,22.78-41.28Zm53.44-4.08s4-4.59,7.65-5.63,9,.64,8.75,4.67-3.36,8.67-10.93,20.59S701.16,135.86,699.7,140s.08,5.7,1.62,6.45,4.3,4.64-.74,5.81-10,.86-12.43-5.38,2.21-14.78,2.21-14.78-10.72,16.72-20.13,18.67-21.23,1.92-23.15-12.27,12.3-33.52,16.3-38.4,13.28-14.45,27.44-18.51a24.39,24.39,0,0,1,23.25,5Zm-6.83,7.63s-13.52,19.23-21.17,32.59-17.65,18.53-20.83,16-.9-12,9.55-27.74,19.71-22.85,26.29-24,6.16,3.12,6.16,3.12ZM613.06,90s3.65-4.88,7.2-6.18,9.06-.72,9.17,3.33-2.69,8.88-9.36,21.34-17,31.81-18.21,36-.11,5.66,1.46,6.24,4.62,4.3-.32,5.84-9.89,1.58-12.8-4.42,1.12-14.91,1.12-14.91-9.44,17.49-18.69,20.11-21,3.49-24-10.51,9.76-34.35,13.38-39.49S574.17,92,588,86.9s25,3.14,25,3.14Zm-7.71,8.25s-12.05,20.18-18.67,34.08-16.21,19.81-19.57,17.52-1.79-11.87,7.46-28.38S592.52,97.25,599,95.62s6.38,2.67,6.38,2.67Zm-79.66,3.12s8.19-2.06,11.15-5.07,7.68-7.68,11.73-7.84S556.63,92,557,95.41a19.36,19.36,0,0,1-3,11.92c-2.56,3.86-10,18.37-10,18.37s-5.52,11.63-7,16.85-1.89,10.24.19,12.51,2.42,2.32,2.69,3.55-1.12,3.86-4,4.72-12.7-4.27-14.86-11.6-.82-13.68.94-20.72S533,105.46,533,105.46c-2.26.11-4.69.51-7.06.64a35.79,35.79,0,0,1-2.06,8.35,46,46,0,0,1-7.62,12.37c-3.76,4.19-11.18,5-12.8,2.85s-1.36-3,2.08-5.36c7.54-5.17,11.33-13.3,13.92-21.7a15.06,15.06,0,0,1-4.4-8.8c-.78-5.66,1.2-8.41,4.34-9.77a8.75,8.75,0,0,1,8.51,1c4.4,4,1.07,8.22-1.2,12.09-.85,1.46-.72,2.64-1,4.26Zm-35.12,1.41s3.36-5.07,6.86-6.56,9-1.2,9.33,2.83-.83,7.49-6.8,20.29-15.31,34.4-16.24,38.67.21,5.62,1.81,6.16,4.86,4,0,5.86-9.78,2.14-13-3.73.29-14.93.29-14.93-8.48,18-17.57,21.09-20.8,4.64-24.54-9.17,7.87-34.83,11.2-40.19,11.31-16,24.83-21.89a25.06,25.06,0,0,1,23.82,1.62Zm-5.89,8.8s-10.93,20.83-16.8,35.07-15.12,20.66-18.61,18.56-2.43-11.76,5.89-28.75,16.61-25.23,23-27.17,6.51,2.32,6.51,2.32Zm-92.51,20.11c1.95-7,3.33-16.08-3.23-18.62s-11.49,2.48-19.22,21.07-10.72,41-4,48.64,20.8,10.29,28.69-1.12S402.57,166,402.57,166s4.35,16.34,17.44,15.92c3.2-.11,5.12-3.31,4.64-5.23-.72-2.93-2.4-3.44-3.41-5.39s-2.35-4.58-.64-12.88,13.28-35.81,13.65-40.74,2.05-12.83-7.63-13.71-19,29.63-19,29.63-11.23,29.73-16.11,37.28-7.52,9.06-10.16,7.09-2.18-9.17,1.44-21.31a227.23,227.23,0,0,1,9.42-24.85ZM345.24,99c2.5,1.66,5.46,3.26,8.74,2.06,6.54-2.4,14.83-14.81,15-25.26s-9.3-21.49-22.74-22.16c-28.27-1.44-52.14,32.48-62.41,56-5.89,13.49-9,33.54-5.92,51.09,5.18,28.91,18,38.53,32.89,38.67s34-11.92,41.65-26.16,10.43-33-.93-45.1-29.36-11.36-35.58-6.88-16.77,13.9-16.59,25.74,8,5,10.67-.22,12.54-12.66,22.27-11.3,15,5.49,15.65,20.56-18.26,33-31.52,32.08-21.63-17.2-21.71-42.35,32.43-61.66,45.5-72.72,13.81-7.52,14.69-5.52C356,70,352.73,79.06,347.13,86c-3.15,3.89-7,9.71-1.92,13.07ZM280,196.23l-10.8-23.3s-82.72,13.28-161.47,2.64C53.87,168.29,31,163.86,22,161.81c-6.94-1.58-15.44-2.27-19.74,5.62-3.12,5.74-3.46,14.22,2.4,16.91,30.57,14.08,152.73,26,275.45,11.89Z"/><path class="cls-1" d="M115.52,94.74c.22-1.12,14.19-.67,28.78,2,5.6,1,14.19,2.61,30.35,6.77,4,1,7.36,5.2,5.84,9-1.31,3.33-4.46,4.16-8.14,3.81-5.54-.5-12.4-3.09-15.73-4.18-5.55-1.84-39.74-14.06-41.1-17.5m34-56.11c.67-.9,11.12,3.6,23.15,12.27,4.61,3.33,19.23,12.83,25.23,20.75,2.5,3.3,2.64,6.9-.35,9.73-2.61,2.45-5.81,1.87-9,0-4.8-2.8-9.89-8.08-12.45-10.51C171.9,66.82,149.31,42.28,149.55,38.6ZM207.61,0c1-.46,7.86,8.64,14,22.16,2.35,5.17,10.29,20.69,11.55,30.56C233.66,56.84,232,60,228,61c-3.47.86-5.95-1.28-7.79-4.48-2.77-4.82-4.05-12.1-5.06-15.49-1.68-5.6-9.58-37.95-7.55-41Zm76.45,4.34c1,.19,1.39,10.43-1.28,23.42-1.44,7-3.87,36.29-15.49,31.65-7.47-3-1-16.48.69-21.44S281,5.54,284.06,4.36ZM189.13,143.73l16.82.21s1.63.11.48-2.24-3.46-14-3.38-20.45,5.38-23,13.78-31.5,24.91-22.43,44.86-19.63,22.1,7.76,23.49,7c.67-.38,1.44-1.39.43-2.27-11-9.39-27.84-12.77-40.83-11.55-15.15,1.42-27,5.07-38.32,16.56-16.64,16.94-26.83,40.91-17.33,63.87Zm78.93,16.9-3.68-17.28s-13.15-1.65-20.75-4.66-12.16-2.19-19.84,4.58-17.81,8.48-35.54,5.26-24.38-9.79-27.92-16.59-5.69-17.63-16.14-13.6-9.2,14-8,16.91,8.35,19.3,28.73,27.84,34.21,6.82,47.3,3.86,25.12-11,28-12c3.58-.35,5.44,4.61,27.84,5.68Z"/></g></g></svg>