<svg fill="#8a8a8a" xmlns="http://www.w3.org/2000/svg" viewBox="0 0 443.69 349.13"><g id="Capa_2" data-name="Capa 2"><g id="Capa_1-2" data-name="Capa 1"><path d="M350.83,212.33c-10.84,7.84-29.37,24.32-29.05,45s14.06,8.83,18.68-.37,21.94-22.18,39-19.8,26.19,9.62,27.4,36-32,57.75-55.18,56.17-37.87-30.12-38-74.15,56.77-107.94,79.65-127.32,24.19-13.17,25.73-9.66c2,4.38-3.74,20.17-13.54,32.31-5.51,6.81-12.23,17-3.36,22.87l0,0c4.39,2.89,9.57,5.69,15.32,3.59,11.44-4.2,26-25.91,26.19-44.21S427.4,95.13,403.86,94c-49.49-2.52-91.27,56.87-109.25,98-10.32,23.62-15.83,58.73-10.36,89.46,9.05,50.61,31.46,67.46,57.56,67.7s59.49-20.87,72.93-45.81,18.26-57.84-1.63-78.95S361.7,204.48,350.83,212.33Z" transform="translate(0 0)"/><path d="M183.26,99c3.22,5.61,7.56,9.34,13.63,7.85,7.05-1.68,9.94-7.29,9-14.48-2.19-17.27-16.11-44.44-20.22-53.5C175,15.16,163-.77,161.22,0h-.05c-3.55,5.37,10.27,62,13.22,71.81C176.16,77.77,178.4,90.51,183.26,99Z" transform="translate(0 0)"/><path d="M128.86,251.68v0l29.46.37s2.85.19.84-3.92-6.07-24.56-5.92-35.81,9.43-40.25,24.13-55.14,43.61-39.27,78.54-34.36,38.7,13.58,41.13,12.27c1.17-.65,2.52-2.42.75-4-19.33-16.44-48.75-22.37-71.49-20.22-26.52,2.47-47.29,8.87-67.09,29C130.08,169.51,112.24,211.49,128.86,251.68Z" transform="translate(0 0)"/><path d="M265.71,104.05c20.36,8.13,24.61-43.09,27.13-55.42,4.67-22.74,4-40.66,2.24-41-5.37,2.05-25.21,50.19-28.16,58.87S252.64,98.82,265.71,104.05Z" transform="translate(0 0)"/><path d="M0,165.82v.05s0,0,0,0S0,165.83,0,165.82Z" transform="translate(0 0)"/><path d="M189.56,250.84c-13.4,11.86-31.19,14.85-62.24,9.2s-42.67-17.13-48.88-29-10-30.86-28.25-23.81-16.11,24.56-14,29.6,14.61,33.8,50.28,48.74,59.91,12,82.83,6.77,44-19.28,49-21.1c6.26-.61,9.53,8.08,48.75,9.95l0,.09L260.62,251s-23-2.89-36.32-8.17S203,239,189.56,250.84Z" transform="translate(0 0)"/><path d="M72,196.45c5.83,1.92,17.83,6.44,27.55,7.33,6.44.61,12-.84,14.24-6.68,2.66-6.72-3.18-14-10.23-15.82-28.29-7.29-43.33-10-53.13-11.86C24.92,164.72.55,163.92,0,165.85,2.57,171.91,62.25,193.23,72,196.45Z" transform="translate(0 0)"/><path d="M106.13,124c4.48,4.24,13.4,13.49,21.8,18.39,5.56,3.27,11.16,4.3,15.73,0,5.23-5,5-11.25.61-17-10.5-13.87-36.09-30.49-44.17-36.32C79.05,73.89,60.74,66,59.58,67.59,59.16,74,98.7,117,106.13,124Z" transform="translate(0 0)"/></g></g></svg>