<svg xmlns="http://www.w3.org/2000/svg" viewBox="0 0 1035.68 367.1"><defs><style>.cls-1{fill-rule:evenodd;}</style></defs><g id="Capa_2" data-name="Capa 2"><g id="Capa_1-2" data-name="Capa 1"><path d="M549.58,96.41h24v58.76h37.65v19.15h-61.7V96.41Zm120.5,65.07H642.8l-3.91,12.84H614.31l29.33-77.91H670l29.2,77.91H674ZM665,144.61l-8.5-28-8.54,28Zm91.74-2.17,21.11,6.36a38.72,38.72,0,0,1-6.71,14.82,29,29,0,0,1-11.35,9q-6.78,3-17.25,3c-8.49,0-15.4-1.23-20.78-3.68s-10-6.8-13.9-13S702,144.83,702,135.18q0-19.31,10.28-29.7T741.39,95.1q14.73,0,23.16,6t12.52,18.3l-21.22,4.7a18.26,18.26,0,0,0-2.34-5.17,14,14,0,0,0-5-4.23,15.3,15.3,0,0,0-19.12,5.08q-3.29,4.88-3.3,15.31c0,8.63,1.31,14.52,3.94,17.73s6.31,4.79,11.06,4.79,8.09-1.29,10.45-3.88,4.06-6.33,5.13-11.24Zm32.83-46H813.6v27.2h26.33V96.41h24.16v77.91H839.93V142.76H813.6v31.56H789.55V96.41Zm90.52,0h64.42v16.65H904.23v12.4h37.32v15.89H904.23v15.34h41.46v17.63H880.07V96.41Zm126.5,65.07H979.3l-3.92,12.84H950.81l29.32-77.91h26.35l29.2,77.91h-25.21l-3.9-12.84Zm-5.09-16.87-8.51-28-8.54,28Z"/><path d="M550,291V213.06h40.11q11.16,0,17,1.92a18.19,18.19,0,0,1,9.52,7.09,24,24,0,0,1,.84,23.85,21.4,21.4,0,0,1-7.62,7.65,29.28,29.28,0,0,1-8.45,3.09,23.81,23.81,0,0,1,6.25,2.86,25.54,25.54,0,0,1,3.85,4.1,31,31,0,0,1,3.36,4.84L626.57,291h-27.2l-12.86-23.76q-2.44-4.62-4.35-6a10.19,10.19,0,0,0-5.91-1.8h-2.13V291Zm24.15-46.25H584.3a36.47,36.47,0,0,0,6.38-1.07,6.2,6.2,0,0,0,3.9-2.45,7.91,7.91,0,0,0-.87-10.33c-1.6-1.36-4.59-2-9-2h-10.6Zm55.23,7.35q0-19.06,10.63-29.69t29.62-10.63q19.44,0,30,10.43t10.52,29.25q0,13.67-4.59,22.38a32.8,32.8,0,0,1-13.29,13.6q-8.7,4.88-21.67,4.86-13.17,0-21.82-4.18a33,33,0,0,1-14-13.3Q629.37,265.73,629.35,252.07Zm24,.05c0,7.85,1.47,13.51,4.39,16.94s6.93,5.15,12,5.15,9.19-1.68,12-5,4.26-9.39,4.26-18.12q0-11-4.44-16.05c-3-3.39-7-5.07-12.06-5.07a14.66,14.66,0,0,0-11.71,5.15c-3,3.42-4.43,9.12-4.43,17Zm120.34-39.06h24v46.41a39.17,39.17,0,0,1-2.15,13,28.07,28.07,0,0,1-6.75,10.73,27,27,0,0,1-9.63,6.46,49,49,0,0,1-16.85,2.59,108.21,108.21,0,0,1-12.4-.79,32.41,32.41,0,0,1-11.25-3.16,28.11,28.11,0,0,1-8.25-6.71,24.54,24.54,0,0,1-5.13-9,46.36,46.36,0,0,1-2.23-13.16V213.06h24.05v47.51q0,6.38,3.52,9.94t9.79,3.59q6.18,0,9.72-3.54c2.34-2.33,3.52-5.67,3.52-10V213.06Zm39.81,0h40q13.1,0,19.61,6.22T879.71,237q0,11.8-7.11,18.46t-21.69,6.65h-13.2V291H813.55V213.06Zm24.16,33.29h5.93q7,0,9.85-2.43a7.81,7.81,0,0,0,2.83-6.2,8.6,8.6,0,0,0-2.47-6.22c-1.63-1.7-4.72-2.55-9.25-2.55h-6.89v17.41Z"/><path d="M433.8,124.39q0-23.85,13.29-37.12t37-13.29q24.31,0,37.48,13t13.15,36.57q0,17.08-5.74,28a41.08,41.08,0,0,1-16.62,17q-10.87,6.09-27.09,6.08-16.47,0-27.28-5.24a41.27,41.27,0,0,1-17.51-16.62q-6.69-11.33-6.71-28.41Zm30.07.07c0,9.81,1.84,16.89,5.49,21.17s8.66,6.44,15,6.44c6.46,0,11.5-2.1,15-6.3s5.33-11.74,5.33-22.65q0-13.74-5.55-20.07c-3.72-4.24-8.73-6.35-15.08-6.35a18.39,18.39,0,0,0-14.65,6.44q-5.53,6.44-5.53,21.32Z"/><path d="M486.59,256.08V235.81h46.52v41.43q-13.36,9.11-23.6,12.42T485.16,293q-17.34,0-28.27-5.92A40.33,40.33,0,0,1,440,269.44q-6-11.67-6-26.83,0-15.95,6.57-27.73A42.68,42.68,0,0,1,459.76,197q9.9-4.74,26.65-4.72,16.11,0,24.12,2.92a31.26,31.26,0,0,1,13.29,9.07,40.43,40.43,0,0,1,7.93,15.58l-29,5.22a15.75,15.75,0,0,0-6.08-8.48c-2.86-2-6.48-3-10.93-3q-9.86,0-15.76,6.87t-5.87,21.74q0,15.78,5.94,22.56c3.95,4.52,9.48,6.78,16.55,6.78a31.31,31.31,0,0,0,9.62-1.45,53.69,53.69,0,0,0,10.47-4.94v-9.11H486.59Z"/><path class="cls-1" d="M179.06.13C83.18,1.17.88,84.72.07,180.34c-2.71,96.74,79,183.93,175.86,186.48C281,372.91,374.16,279.2,366.68,174c-2.95-94.42-87.27-174-181-174C183.52,0,181.29.05,179.06.13ZM184,18.77c216.63,4.39,215.62,325.9-.35,329.54C-32.62,344.78-33.2,22.27,184,18.77ZM114.51,64.3C92.77,89.11,69.66,113.61,48.6,138.61h62.54q46.41,0,92.83,0c-.17,41,.32,82.12-.17,123.1H154.57c-3.8-5.26-6.49-12-6.3-18.55,23.23-5.44,40.35-25.2,53.34-44-28.81-4.13-45.46,5-55.49,32.32-2.05-15.07,4.85-28.67,9.51-42.54,2.21-6.45,6.48-13.61,4.48-20.5-9,12.82-16.22,27.08-19.83,42.31-3.22-11.25-10.41-24.11-23.07-25.84-8.66-1.43-17.88-3.28-26.53-2.34C101,200,117,216.44,138,218.78c-4.71,14.58.35,29.79,6.92,42.94-9.12.13-18.21.09-27.3,0s-18.33-.07-27.52.06c16.61,16.86,33.77,33.3,50.57,50,1.29,1.27.72,1.09,2.72,1.09h90.34c.92,0,1.76.07,2.37-.75q19-21.36,38.11-42.67c3.05-44.29-.15-90.23,1.12-135,6.64-.26,13.39-.18,20.13-.09,8,.1,16,.2,23.8-.29-17.55-23.37-35.37-46.59-53-69.85-.61-.06-31.85-.09-65.83-.09-40.74,0-85.41,0-85.94.11ZM100.63,186.38c17.51-3.13,32.72,3.55,35.32,22.48-11.13-8.46-23.3-15.32-35.32-22.48Zm-1.49,2c4.09,2.62,46.2,23.89,35.58,27.67C119.92,213.68,105.42,201.87,99.14,188.38Zm96.64,14.73c-13.62,7.91-28.72,14.39-43,21.5C159.74,208.36,178.48,198.17,195.78,203.11Zm-4.64,6.28c-8.48,12.28-21.36,24.56-36.69,27C162.2,222.73,176.3,213.65,191.14,209.39Z"/></g></g></svg>