<svg fill="#8a8a8a" xmlns="http://www.w3.org/2000/svg" viewBox="0 0 367.1 367.1"><defs><style>.cls-1{fill-rule:evenodd;}</style></defs><g id="Capa_2" data-name="Capa 2"><g id="Capa_1-2" data-name="Capa 1"><path class="cls-1" d="M179.06.13C83.18,1.17.88,84.72.07,180.34c-2.71,96.74,79,183.93,175.86,186.48C281,372.91,374.16,279.2,366.68,174c-2.95-94.42-87.27-174-181-174C183.52,0,181.29.05,179.06.13ZM184,18.77c216.63,4.39,215.62,325.9-.35,329.54C-32.62,344.78-33.2,22.27,184,18.77ZM114.51,64.3C92.77,89.11,69.66,113.61,48.6,138.61h62.54q46.41,0,92.83,0c-.17,41,.32,82.12-.17,123.1H154.57c-3.8-5.26-6.49-12-6.3-18.55,23.23-5.44,40.35-25.2,53.34-44-28.81-4.13-45.46,5-55.49,32.32-2.05-15.07,4.85-28.67,9.51-42.54,2.21-6.45,6.48-13.61,4.48-20.5-9,12.82-16.22,27.08-19.83,42.31-3.22-11.25-10.41-24.11-23.07-25.84-8.66-1.43-17.88-3.28-26.53-2.34C101,200,117,216.44,138,218.78c-4.71,14.58.35,29.79,6.92,42.94-9.12.13-18.21.09-27.3,0s-18.33-.07-27.52.06c16.61,16.86,33.77,33.3,50.57,50,1.29,1.27.72,1.09,2.72,1.09h90.34c.92,0,1.76.07,2.37-.75q19-21.36,38.11-42.67c3.05-44.29-.15-90.23,1.12-135,6.64-.26,13.39-.18,20.13-.09,8,.1,16,.2,23.8-.29-17.55-23.37-35.37-46.59-53-69.85-.61-.06-31.85-.09-65.83-.09-40.74,0-85.41,0-85.94.11ZM100.63,186.38c17.51-3.13,32.72,3.55,35.32,22.48-11.13-8.46-23.3-15.32-35.32-22.48Zm-1.49,2c4.09,2.62,46.2,23.89,35.58,27.67C119.92,213.68,105.42,201.87,99.14,188.38Zm96.64,14.73c-13.62,7.91-28.72,14.39-43,21.5C159.74,208.36,178.48,198.17,195.78,203.11Zm-4.64,6.28c-8.48,12.28-21.36,24.56-36.69,27C162.2,222.73,176.3,213.65,191.14,209.39Z"/></g></g></svg>