<svg fill="#8a8a8a" xmlns="http://www.w3.org/2000/svg" viewBox="0 0 751.25 367.1"><defs><style>.cls-1{fill:#8a8a8a;}</style></defs><g id="Capa_2" data-name="Capa 2"><g id="Capa_1-2" data-name="Capa 1"><path class="cls-1" d="M0,363.61c3.82-8.74,7.78-17.42,11.37-26.25,1-2.48,2.16-3.5,4.82-3.92C98.33,320.36,180.48,307.37,262.56,294c54-8.82,107.85-18.82,161.92-27.29,55-8.61,109.93-18.25,165-26.81,10.8-1.68,10.63-1.62,8.93,9.26-.85,5.41-2.34,8.73-8.79,9.88-49.88,8.95-99.66,18.42-149.5,27.6q-113,20.81-226,41.46-97.87,18-195.73,36.12C12.24,365.3,6.11,366.13,0,367.1Z"/><path class="cls-1" d="M425.25,57c8-.08,15.66-1.89,23.31-3.53,18.16-3.9,36.27-8,54.41-12a29.55,29.55,0,0,1,4.6-.6c2.41-.15,3.92.78,2.89,3.41-2.18,5.57-4.34,11.15-6.86,16.57-1.58,3.4-5.14,3.7-8.44,4.16-24.9,3.46-49.75,7.26-74.51,11.64-7.69,1.37-12.3,4.56-16,11.75C391.55,113.5,377.22,138,368.12,165c-5.14,15.25-9.14,30.77-6.24,47.14,1.85,10.44,7.71,16.24,16.06,15.64,8-.58,12.21-6.89,17.3-11.77,1.18-1.13-.14-3-.38-4.44-5-31.33.82-60.27,19.18-86.39,7.77-11,17.26-20.27,29.6-26.26a34.42,34.42,0,0,1,15.09-3.75c13.39,0,22.47,10.73,20,23.86-3,15.89-12.1,28.6-21.88,40.82a212.55,212.55,0,0,1-37.07,36.59c-1.93,1.48-2.19,2.68-1.52,4.84,2.68,8.71,7.5,12.33,16.6,12.22,17.63-.2,42.62-14.87,47.93-35.76,7.28-28.62,18.52-56,27.87-84,1.49-4.47,4.08-7.27,8.8-8,3.82-.6,7.61-1.41,11.44-1.93,3.53-.47,5,.55,3.67,4.56-4.18,13.05-9.34,25.74-13.9,38.65-5.9,16.72-12.65,33.2-16.19,50.67a54.17,54.17,0,0,0-.23,20.15c.81,4.65,3.57,5.53,7.55,4.31,5.56-1.71,9-5.85,11.68-10.69,5-9,7.54-19,10.7-28.67q13-39.92,25.56-80c.87-2.77,2-4.37,4.89-4.85,4.38-.73,8.72-1.82,13.12-2.29,5.92-.64,7,.82,4.85,6.57-8.78,23.92-16.27,48.26-23.65,72.64-3.54,11.68-6.27,23.52-5.25,35.86.26,3.23.16,7.79,3.29,8.66,3.86,1.07,6.3-2.84,8.25-6,15.11-24.78,26-51.47,35.61-78.73,3-8.54,6-17.13,9.46-25.49,1.62-3.88,1.74-5.83-2.66-7.83-8.86-4-12.57-11.23-11.35-20,1.12-8,7.92-14.86,16.5-16.61s17.51,3.27,18.92,12c1,6.21,4.11,6,8.41,4.57q10.18-3.32,20.28-6.9c2.9-1,4.36-.34,5.7,2.65,3.78,8.46,4.3,16.12.38,25.27-12.81,29.95-20.75,61.39-24.89,93.68-1.16,9.12-1.39,18.53,1.35,27.63,3.3,11,12,14.65,22.09,9,9.61-5.42,15.16-14.55,21-23.46,14.66-22.41,25.48-46.64,34.84-71.62,4-10.72,4.26-10.62,15.48-9.38,3.46.38,6.95.52,10.37,1.09,4,.66,5.41,2.76,4,7-4.18,12.78-11.4,24-17.59,35.79-12.25,23.28-26,45.6-45.12,64.05-7.83,7.56-16.49,14.36-28,15.19-19.09,1.38-35.89-14.63-37.41-35-1.72-23.06,2.78-45.39,7.9-67.62,3.46-15.05,7.28-30,11.23-45,1.07-4.07.25-4.06-3.58-3.73-9.5.84-13.27,5.57-16.2,14.77a491.86,491.86,0,0,1-41.79,95.14,66.39,66.39,0,0,1-14.14,16.8c-11.21,9.87-23.17,6.79-28.35-7.13-.67-1.8.19-5-2.45-5.18s-3.46,2.76-4.61,4.69c-4.39,7.36-9.36,13.94-17.07,18.44-14.68,8.59-28.15,3.93-32.12-10.26-1.4-5-3.22-1.86-4.89,0-9.7,10.55-21,18.52-34.76,23.25-13.25,4.56-25.57,3.21-37.16-4.26-3.44-2.22-4.6-2.17-6.89,1.6-7.61,12.53-30.46,18.66-43.63,12.23-9.66-4.71-12.82-13.5-14.1-23.19-.88-6.66-1.11-13.41-1.65-20.35-3.05,0-3.46,2.77-4.41,4.56-7.49,14.13-15.16,28.18-22.12,42.57-3.39,7-7.78,11.64-15.72,12.71-5.36.73-10.63,2.07-16,2.91-2,.32-4.68.82-5.81-1.4-.94-1.84.86-3.55,1.9-5.1A204.66,204.66,0,0,0,289,231.43c8.25-16.17,7.44-33.21,5.19-50.44-.66-5.06-.92-10.18-1.43-16-3.74,3.14-4.9,7-6.62,10.52-15.22,31-32.72,60.39-57.74,84.71a36.9,36.9,0,0,1-17.42,10c-11.17,2.62-19.73-2.57-22-13.72-.94-4.58-2.34-3.41-4.56-1.13-6.22,6.37-12.39,12.79-20,17.61a47,47,0,0,1-4.4,2.77c-8.84,4.37-17.87,8.41-27.37,2.09s-11.87-16.43-11.26-27c.88-15.41,7.62-29,14.73-42.35,12.75-23.93,28.17-45.65,51.21-61a120,120,0,0,1,15.77-8.55c8-3.76,16-4.47,24-.32,3.18,1.64,5.64,2.14,7-2.33.83-2.7,3.44-4.28,6.2-4.73,7.63-1.24,15.28-2.4,23-3.24,5.75-.62,3.66,2.88,2.18,5.25-12.44,20-23.07,40.94-34.53,61.45-9.9,17.72-19.08,35.74-22.14,56.21-.74,4.88.5,5.7,5.07,4.93,3.57-.61,5.88-2.45,8.29-4.78,16-15.54,27.11-34.53,37.71-53.8,13.3-24.2,26.36-48.54,37-74.07,2.6-6.27,13.38-11.49,19.91-9.83,1.53.39,2.39,1.26,2.25,2.86a11.31,11.31,0,0,1-.6,3.42c-8.49,19.6-6.11,39.7-2.8,59.83a136,136,0,0,1,2.19,21.3c0,1.06-.6,2.54.65,3.12,1.84.84,2.27-1,2.84-2.09q7.89-14.81,15.66-29.66c13.26-25.24,26.89-50.29,38.53-76.33,1.31-2.94,4.23-6.54,2.43-9.11-2-2.82-6.1-.4-9.18.15C350.83,90.36,333,93.73,315.08,97a55.45,55.45,0,0,1-7.5.79c-1.87.08-4.37,1-5.45-.8-1.28-2.1,0-4.56,1.07-6.61,1.62-3.17,4.62-4.41,7.9-5.35,22.13-6.4,44.62-11.28,67.17-15.86,7.61-1.55,13.17-4.92,16.14-12.37,2.14-5.34,4.92-10.42,7.35-15.65,2.71-5.83,7-9.41,13.49-10.6s12.8-3,19.23-4.37c1.62-.34,3.76-.94,4.91.65s-.09,3.4-.9,4.86c-3.54,6.4-7.24,12.7-10.81,19.08C426.67,52.55,425.13,54.17,425.25,57Zm-199.41,99.5c.13-8.17-.72-8.89-7-7.24-8.75,2.29-15.48,7.7-21.13,14.44-14.66,17.53-25.94,37.21-36.26,57.49-4.21,8.26-8.19,16.65-10,25.79-.81,4.2-2.33,9.38,2.06,12.32s8.92.78,13.08-1.56a15.67,15.67,0,0,0,2-1.14c7.91-6,15-12.79,20.49-21.07C200.25,218.58,209,200.34,217.53,182,221.62,173.3,225.11,164.32,225.84,156.46Zm237-48.73c-7.46,1.74-12.92,6.66-17.72,12.2-13,15-21.17,32.59-25.66,51.83-.88,3.73-3.75,9.24-.6,11.1,2.43,1.44,6.62-3.5,9.34-6.42a224.86,224.86,0,0,0,35.16-50.7,36.49,36.49,0,0,0,4.25-12.53C468,110,467.24,107.26,462.85,107.73Z"/><path class="cls-1" d="M124,130.74c10.81-5.55,21.53-10.73,31.95-16.47,15.61-8.6,30.76-18,41.52-32.67,7.24-9.87,13.5-20.18,13.63-33.12.1-9.69-4.25-16.56-12-21.69-11.42-7.53-24.52-9.35-37.66-10.13-34.18-2.05-66.22,5.05-92.91,27.21-8.91,7.4-16.39,7.87-26,4.71-5.79-1.9-11.75-3.28-17.87-5,1.81-3.74,4.94-5.07,7.73-6.59C61.83,20.93,92.39,7.55,125.8,1.94c22.76-3.82,45.18-2.09,66.91,6a64.38,64.38,0,0,1,25.17,17.12c15.47,16.83,9.57,43.42-1.13,59.82-21.81,33.43-53.08,54.31-90.24,66.9-9.44,3.2-15,7.94-18.56,17.47-15.57,41.92-32,83.5-47.85,125.33-2.22,5.87-5.18,9.11-11.6,10.11-8.19,1.28-16.2,3.71-24.32,5.5-1.54.34-3.36,1.78-4.82-.12s-.24-3.69.54-5.4c6-13.17,12-26.3,18-39.48Q58.52,219.3,79,173.36c.64-1.45,2.51-3.12,1-4.66-1.24-1.22-3.33-.5-5-.21-12.57,2.17-24.77,6.29-37.57,7.15-1.83.13-4.77,2.84-5.54-1.25-.65-3.42.67-5.47,4.42-6.65A256.61,256.61,0,0,0,80.09,149.5c8.16-4.36,13.86-10.17,17.29-19.14,9.66-25.2,20.29-50,30.22-75.14C130.14,48.78,134,45,141,44.31c2.47-.25,4.86-1.26,7.31-1.78,5.16-1.08,6.62.42,4.79,5.4-4.59,12.49-9.44,24.88-14.1,37.35q-7.09,19-14,38C124.21,125.39,123,127.48,124,130.74Z"/></g></g></svg>