<svg xmlns="http://www.w3.org/2000/svg" viewBox="0 0 1072.05 367.1"><g id="Capa_2" data-name="Capa 2"><g id="Capa_1-2" data-name="Capa 1"><path d="M190.84,0,37.14.5C9.25,10.21.45,22.75.47,52.51c0,33.29.87,66.61-.44,99.85-.54,13.89,5.32,19.71,16.57,25.14,37.83,18.25,75.2,37.46,112.88,56,6.66,3.29,9.66,7.61,9.49,15.15-.39,16.85.43,33.74-.3,50.57-.48,10.88,2.34,16.57,14.35,15,5-.65,9.68.21,9.57,7.21-.1,6.15-2.65,10.36-9,10.41-25.17.22-50.35.15-75.52,0-4.53,0-7.23-2.46-7.32-7.27s1-10,6.26-9.66c16.22,1,15.48-9.25,15-20.16a204.18,204.18,0,0,1,.09-23.34c.47-6.73-2.78-10.44-8.24-13.16-24-12-48.17-23.73-72-36.13C2.43,217.29.19,219.73.32,229.59c.4,29.83.14,59.66.2,89.49.06,31.27,16.79,48,48.14,48q67.73,0,135.44-.38c27.17-.13,43.65-16.55,43.75-43.49.14-36.75-.75-73.53.7-110.23.49-12.41-3.83-17.59-13.87-22.45-37.42-18.14-74.43-37.1-111.79-55.35-8-3.91-11.61-8.75-11.16-18,.75-15.09-.19-30.26.27-45.38.28-9.29-.47-16.22-12.64-15.48-4.93.3-9.26-2.25-8.66-8.76.53-5.74,3.54-8.19,9.19-8.8,24.25-2.65,48.55-1,72.83-1.05,4.77,0,9.68,1,9.86,7.7.18,6.2-2.78,11.22-8.56,10.83-16-1.06-16,8.58-15.27,19.81.45,6.89.19,13.83.07,20.75-.08,4.68,1.13,8.39,5.68,10.67,25.16,12.6,50.25,25.33,75.42,37.92,5.29,2.65,7.94,1,8-5.18.35-25.48.64-51,1.43-76.42C230.28,34.18,225.34,8.33,190.84,0Z"/><path d="M776.94,218.45c.08-10.31-6-16.51-17.56-16.23-15.6.39-31.22.1-46.84.1v0c-14.75,0-29.49-.14-44.24,0-15.39.18-21.15,5.61-21.38,21.26-.4,28.08,0,56.16-.39,84.23-.15,12.34,5.88,19,17.69,19.18,31.22.43,62.46.5,93.67-.13,9.66-.19,16.22-4.59,17.49-16.56C778.65,279.66,776.71,249.05,776.94,218.45Zm-27.6,45.66h-.28c0,9.92-.29,19.85.08,29.75.3,7.91-3.33,10.81-10.86,10.76-18.19-.14-36.38-.21-54.56.08-8,.13-10.63-3.63-10.51-11q.45-29.76.39-59.52c0-7,3-10.33,10.12-10.29,18.62.1,37.24.16,55.87,0,7.36,0,9.9,3.68,9.79,10.47C749.22,244.27,749.34,254.19,749.34,264.11Z"/><path d="M908.22,300.25c-3.93-6.09-4.8-11.07,3.26-14.46,7.46-3.13,9.42-9.37,9.37-16.88-.11-16.43.08-32.85,0-49.28,0-11.69-6-17.41-17.76-17.37-16.49.05-33,0-49.48,0-14.76,0-29.51,0-44.27,0-17,.06-16.85.1-17.17,17.19-.56,29.79,1.8,59.65-1.19,89.36-1.69,16.87-.36,18.56,16.4,18.62,14.75.06,11.17-10.09,11.36-18,.54-22.55-2.83-20.87,21-21a20.29,20.29,0,0,0,3.9,0c21.79-4.53,35.44,5,42.94,24.82,5.17,13.69,16.08,15.06,28.62,14.18,6.94-.49,7-3.49,4.29-8.25C915.86,312.77,912.18,306.42,908.22,300.25Zm-48-34.55H846c-27-.09-33-8.11-26.74-34.82,1.32-5.65,4.93-6.62,9.48-6.64,18.67-.09,37.34,0,56-.07,6.45,0,9.66,3,9.33,9.55,0,.43,0,.86,0,1.29C893.68,272.57,899.64,264.89,860.18,265.7Z"/><path d="M405.1,166.45c13.18-.14,20-6.74,20.29-19.64.26-10.8.25-21.6.13-32.4-.17-15.84-5-20.8-21.08-20.94-22.55-.19-45.11.12-67.66-.17-5.82-.08-14.17,2.88-14.49-7.78-.6-19.6,1.39-22.59,15.26-22.64,23.42-.09,46.84-.13,70.26.07,7.05.07,10.48-2.46,10.08-9.81-.32-5.75.39-11.55-8.23-11.51-32.1.13-64.2-.26-96.29.26-10.47.17-16.56,6.13-16.22,17.59.35,12.08-.16,24.19,0,36.28.18,14.5,4.8,18.92,19.86,19,21.26.11,42.51.26,63.76-.09,10.73-.18,19.79-.72,18.41,14.91s-.47,15.7-19.27,15.71c-23.85,0-47.71.11-71.56,0-7.79-.05-13.5.93-13.48,11,0,10.57,6.65,10.35,13.95,10.32,16-.07,32.09,0,48.14,0S389.05,166.63,405.1,166.45Z"/><path d="M453.25,166.69c34.29-.43,68.6-.24,102.9,0,7.83.05,13.19-.64,13.17-10.85,0-10.44-5.87-10.67-13.44-10.63-26,.16-52.11-.22-78.15.21-13.07.21-10.21-8.77-10.46-16.08s-1.19-15,10.58-14.66c17.35.55,34.74-.08,52.1.28,8.11.16,10.35-3.37,10.37-10.92,0-7.75-2.66-10.86-10.6-10.69-16.49.37-33-.58-49.48.33-12.2.68-13.11-5.53-13.08-15,0-9.8.57-16.46,13.62-16,26,.91,52.09.23,78.14.39,7.47,0,12.51-1.39,12.53-10.58,0-8.91-4.38-11-12.16-10.91-17.8.23-35.6.07-53.4.07-17.37,0-34.75.34-52.1-.12-9.48-.26-13.14,3.19-13.05,12.79.28,33.29.26,66.59-.28,99.88C440.3,163.84,443.67,166.82,453.25,166.69Z"/><path d="M611.71,202.29c-15.6-.14-31.2,0-46.8,0s-31.24.7-46.78-.23c-12.23-.74-15.26,3.95-15.32,15.54-.16,31,1.93,62.07-1.28,93.07-.75,7.3-3.56,16.13,9.43,16.67,15.25.64,16.41,0,16.58-14.94,0-3.46.41-7,0-10.35-1.39-10.93,3.47-14.19,14.08-13.87,22.08.65,44.2.31,66.29.15,18.26-.13,23.43-5.26,23.57-22.93q.16-21.36.07-42.72C631.46,206.92,627.14,202.44,611.71,202.29Zm-35,63.25c-3.47.06-6.94,0-10.41,0-9.12,0-18.23-.08-27.34,0-6.54.08-9.62-3-9.29-9.46,0-.87-.05-1.73,0-2.6.5-32.55-4.56-29.16,28.7-29.44,11.72-.1,23.44.22,35.14-.1,8.44-.23,11.44,3.46,11.37,11.67C604.6,271.57,607.35,265,576.74,265.54Z"/><path d="M483.09,205.27c-2.6-.51-6.42,2.21-8.86,4.4-13.2,11.82-26.34,23.71-39.11,36-19.25,18.5-20.9,18.62-40.55-.5-1.86-1.82-3.64-3.71-5.56-5.47q-20.82-19-41.73-38.09c-1.38,1.72-2.31,2.34-2.32,3-.27,37.58-.39,75.17-.7,112.76-.08,9.42,5.86,9.88,13,10,7.85.13,10.83-3.21,10.72-10.89-.24-16.41-.06-32.84.09-49.26,0-2.87-1-6.52,2.19-8.23,4-2.15,6.4,1.48,8.75,3.75,9.33,9,18.86,17.92,27.58,27.51,6.27,6.9,10.82,6.33,16.85-.2,8.8-9.54,18.32-18.42,27.6-27.51,5.83-5.71,9.41-7,11.2,3.52,2.85,16.82,1.06,33.61,1.41,50.4.17,8.59,3.5,11,11.71,11s10.44-3.34,10.39-10.86c-.2-34.14,0-68.28-.15-102.42C485.61,211,487.35,206.1,483.09,205.27Z"/><path d="M1062.48,202.21q-54.71.27-109.39,0c-8.8,0-9.48,5-9.61,11.75-.14,7.41,3.22,9.91,10.23,9.72,9.54-.25,19.11.37,28.64-.08,8.63-.41,11.42,3.25,11.14,11.5-.46,13.38-.12,26.79-.12,40.2h-.17c0,12.53.31,25.08-.11,37.6-.3,9.05,1.15,14.66,12.47,14.63,10.68,0,14.64-3.45,14.43-14.24-.5-25.49.37-51-.2-76.5-.23-10.38,3.47-13.94,13.55-13.28,9.51.62,19.11-.22,28.64.23,8.48.41,10-4,10.07-11.17C1072.07,205.7,1070,202.18,1062.48,202.21Z"/><path d="M651.18,165.64c12.82-25.26,25.44-50.1,38-75,6.43-12.72,13-25.38,19-38.29,1.49-3.19,5.74-9.07-1.37-10.18-9.64-1.51-19.77-2.79-25.29,9.58-7,15.76-15.19,31-23.25,46.29-2,3.84-2.29,10.41-8.56,9.91-5-.4-5.78-5.95-7.6-9.68C634,81.67,626.17,64.86,618,48.23c-2.93-5.94-20-10.21-25.32-5.79-6.51,5.37.65,10.07,2.68,14.37,14.21,30,28.92,59.83,43.46,89.71C642,153,643.46,160.4,651.18,165.64Z"/><path d="M744.1,166.71c8.36.35,12.68-1.61,12.58-11.27q-.54-51,.28-102.1c.17-10.38-4.61-12-13.43-12S729.73,43.6,730,53.7c.51,17.22.14,34.47.14,51.7H730c0,16.8.5,33.63-.17,50.4C729.37,167.3,736.43,166.39,744.1,166.71Z"/><path d="M308,202.2c-7.6-.08-13.61.26-13.27,10.63.56,17.21.15,34.46.15,51.69h-.23c0,17.23.42,34.47-.16,51.68-.33,9.75,4.38,11.4,12.64,11.21s14.29-.61,14.19-11.46q-.5-51.68.2-103.37C321.69,202,315.38,202.28,308,202.2Z"/></g></g></svg>