<svg fill="#8a8a8a" xmlns="http://www.w3.org/2000/svg" viewBox="0 0 229.47 367.1"><g id="Capa_2" data-name="Capa 2"><g id="Capa_1-2" data-name="Capa 1"><path d="M37.14.5,190.84,0c34.5,8.33,39.44,34.18,38.53,63.84-.78,25.46-1.08,50.94-1.43,76.42-.08,6.19-2.73,7.83-8,5.18-25.17-12.59-50.26-25.32-75.42-37.92-4.55-2.28-5.76-6-5.68-10.67.12-6.92.38-13.86-.07-20.75C138,64.87,138,55.23,154,56.29c5.78.39,8.74-4.63,8.56-10.83-.18-6.74-5.09-7.7-9.86-7.7-24.28,0-48.58-1.6-72.83,1.05-5.65.61-8.66,3.06-9.19,8.8-.6,6.51,3.73,9.06,8.66,8.76C91.53,55.63,92.28,62.56,92,71.85c-.46,15.12.48,30.29-.27,45.38-.45,9.22,3.14,14.06,11.16,18,37.36,18.25,74.37,37.21,111.79,55.35,10,4.86,14.36,10,13.87,22.45-1.45,36.7-.56,73.48-.7,110.23-.1,26.94-16.58,43.36-43.75,43.49q-67.71.33-135.44.38c-31.35,0-48.08-16.75-48.14-48-.06-29.83.2-59.66-.2-89.49-.13-9.86,2.11-12.3,11.55-7.38,23.81,12.4,48,24.14,72,36.13,5.46,2.72,8.71,6.43,8.24,13.16A204.18,204.18,0,0,0,92,294.84C92.5,305.75,93.24,316,77,315c-5.21-.32-6.35,4.95-6.26,9.66s2.79,7.25,7.32,7.27c25.18.11,50.35.18,75.52,0,6.34-.05,8.89-4.26,9-10.41.11-7-4.55-7.86-9.57-7.21-12,1.56-14.83-4.13-14.35-15,.73-16.83-.09-33.72.3-50.57.17-7.54-2.83-11.86-9.49-15.15-37.68-18.58-75-37.79-112.88-56C5.35,172.07-.51,166.25,0,152.36,1.34,119.12.5,85.8.47,52.51.45,22.75,9.25,10.21,37.14.5Z"/></g></g></svg>