<svg xmlns="http://www.w3.org/2000/svg" viewBox="0 0 1080 245.29"><g id="Capa_2" data-name="Capa 2"><g id="Capa_1-2" data-name="Capa 1"><path d="M53.48,82.51h0c-2.37-.15-4.8-.21-7.28-.21l-46,.1v31.38H46.07c31.29,0,50.33,18.05,50.33,47.67,0,29.42-18.94,47.27-50,47.27H.18V240.4h46c51.09,0,82.29-29.82,82.29-78.84,0-46.94-28.24-76.38-75-79"/><path d="M89.05.48C39.25.38,7,26.79,1.15,71.12H36.48C42,48,61,34.48,89.15,34.48h39.72V.58Z"/><path d="M40.46,159a20.23,20.23,0,1,1-20.22-20.24A20.23,20.23,0,0,1,40.46,159"/><path d="M460.85,86c-16.7-16.5-40.17-26.34-67.29-26.34-38.58,0-70.28,19.59-85.69,49.72C299.73,78.5,275.69,60,241.23,60c-24.6,0-45.64,9-59.75,24.14V.55H143.66V241h37.82V146.21c0-31.36,20.81-53.62,49.42-53.62,28,0,42.2,17.17,42.2,49.21V241h37.83v-40.1c16.32,27,46.45,44.41,82.63,44.41,26.81,0,50.05-9.71,66.71-25.94L464,240.87h30.51V133.62L464.85,66.05ZM396.53,210.46c-34.69,0-60.28-24.94-60.28-58.06s25.59-58.07,60.28-58.07,60,24.71,60,58.07-25.35,58.06-60,58.06"/><path d="M1059,207.93c-22.28,0-34.48-11.75-34.48-32.85V95.15H1079V64H977.38L958.74,83.08c-17.29-14.72-40.55-23.41-66.88-23.41-37,0-67.88,17-84.67,43.85V64H769.36v97.14c0,30.4-17.11,49.4-45.76,49.4-28.41,0-45.86-18.65-45.86-49.4V64H623.25l-54,131.26L514.11,64H474.26l77.56,177h34.7L639.92,116v50.23c0,47.61,33.15,79,83.68,79,20.08,0,37.34-4.93,50.88-13.83A70.19,70.19,0,0,0,803,193.82c15.49,31.1,48.54,51.47,88.85,51.47,23.34,0,44.25-6.85,60.74-18.67a89,89,0,0,0,34.12-48.47c.08,39,24.94,62.81,65.18,62.81H1080v-33Zm-167.16,2.61C857,210.54,832,186.35,832,152.48s25-58.07,59.86-58.07,59.86,24.19,59.86,58.07-25,58.06-59.86,58.06m94.86-83.78a88.58,88.58,0,0,0-16.26-31.61h16.26Z"/><rect x="986.64" width="38.41" height="51.22"/></g></g></svg>