<svg fill="#8a8a8a" xmlns="http://www.w3.org/2000/svg" viewBox="0 0 193.64 360.5"><g id="Capa_2" data-name="Capa 2"><g id="Capa_1-2" data-name="Capa 1"><path d="M80.35,123.25h0c-3.57-.22-7.23-.3-10.94-.3l-69.11.14v47.15h69c47,0,75.62,27.13,75.62,71.63,0,44.21-28.47,71-75.18,71H.27v47.6H69.38C146.14,360.5,193,315.69,193,242c0-70.53-42.43-114.77-112.67-118.78"/><path d="M133.81,0C59-.15,10.44,39.54,1.73,106.14H54.82c8.27-34.68,36.79-55,79.14-55h59.68V.15Z"/><path d="M60.79,238.19a30.4,30.4,0,1,1-30.38-30.41,30.4,30.4,0,0,1,30.38,30.41"/></g></g></svg>