<svg fill="#8a8a8a" xmlns="http://www.w3.org/2000/svg" viewBox="0 0 1080 334.9"><g id="Capa_2" data-name="Capa 2"><g id="Capa_1-2" data-name="Capa 1"><path d="M1073.8,311.8c-6.45-5.05-14-3-21.12-3q-513.6-.18-1027.2-.07c-5.72,0-11.75-1.24-16.87,2.7-7.14,3.05-9,8.69-6.65,15.47,2.23,6.48,8,7.85,14.19,7.92,3.88.05,7.76.05,11.64.05H1048.16c5.33,0,10.68-.18,16,0,6.36.21,11.75-1.56,14.28-7.74S1079.19,315.76,1073.8,311.8Z"/><path d="M834.33,267c24.24-4.45,45.22-14.56,58-37.1,3.4-6,5.25-11.72-2.7-15.89-12.42-6.53-29.06-3.94-39.51,6.49-14.92,14.9-32.87,15.72-51.37,9.92-18-5.65-26.48-19.57-29.63-37.82-1.69-9.77,1.79-11.68,10.54-11.44,17.45.49,34.94.14,52.41.14v-.06c18,0,35.92-.16,53.87.06,9.92.12,14.44-5,14.26-14.21-.67-34.65-9.31-66.28-42.42-83.61-31.91-16.71-64.89-15.67-95.35,4.54-36.1,24-49.05,82.68-29.69,129.13C748.11,254,790.59,275.08,834.33,267ZM769.68,142.91c2.8-19.56,23.25-36,45.12-35.82s39.88,15.83,42.53,36.32c.89,6.91-1.64,8.38-7.73,8.24-12.14-.27-24.28-.08-36.42-.08s-24.3-.29-36.42.12C769.76,151.92,768.82,148.93,769.68,142.91Z"/><path d="M280.79,151.13c-19.52,3.41-39.54,4.06-58.39,11-21.44,7.91-33.67,24.67-34.69,47.28-1,22.18,11.2,42.73,30.81,51.89,31,14.48,60.78,8,89.17-20.37,3.24,22.78,6,24.55,28.07,23.67,18.3-.73,15.58-13.59,15.61-25,.07-33.46,0-66.92,0-100.38,0-10.26-.6-20.51-5.29-29.8C331.37,80.29,304.85,73.3,275.3,73c-30.82-.34-57.57,8.34-74.5,36.45-3.31,5.5-3.32,11.17,2.71,15.33,9.28,6.41,29.46,4.55,37.27-3.9,10.36-11.2,23.14-15.53,38-14.35,17.4,1.39,28.21,11.79,28.36,27.16C307.3,152.63,291.46,149.27,280.79,151.13Zm26.58,38.77c-.14,33.59-25.13,52.38-56.74,44-11.68-3.08-18.82-9.83-19.56-22-.76-12.33,6-20.93,17.14-24,17.67-4.81,35.69-9.06,53.83-11.06C312.49,175.76,304.56,186.48,307.37,189.9Z"/><path d="M924.92,246.76c-3.32,5.53-6.44,11.52,1.64,16.07,12.09,6.81,34.75.49,42-11.77,10.51-17.71,20.95-35.46,32.38-54.83,10.78,18.29,21.08,34.11,29.65,50.81,7.26,14.15,17.64,18.86,33,17.69,17.51-1.33,20.57-6.16,11.19-21.57-13.09-21.51-26.09-43.09-39.7-64.27-4.24-6.6-4.37-11.46-.14-18.16,13.69-21.7,26.75-43.81,39.87-65.88,3.4-5.72,8.22-12.23.31-17.86-9.39-6.7-35.65-.57-41.56,9.67-10.64,18.43-20.82,37.12-32.7,58.41-9.81-17.84-19.51-32.91-26.62-49.11-7.41-16.86-18.74-22.7-36.55-20.85-15.64,1.62-18.7,5.26-10.89,19,11.49,20.2,22.8,40.6,35.91,59.74,8.19,12,7.2,20.83-.55,32.28C948.89,205.75,937.14,226.42,924.92,246.76Z"/><path d="M57.77,249.08c3.78,10.8,10,16,21.36,15.46a172.74,172.74,0,0,1,17.48,0c10.59.53,17.25-3.71,20.89-14.06,18.61-53,37.55-105.85,56.43-158.73,1.71-4.78,3-9.33-1.31-13.42-9.69-9.21-40.09-1.63-44.12,11.14-6.72,21.25-13.17,42.58-19.82,63.84-6.3,20.1-12.71,40.17-19.08,60.24l-3.41-.25q-7.81-24.92-15.63-49.83c-7.8-25-15.36-50-23.47-74.86-4-12.31-24.24-18.9-39.59-12.36C-5.77,81.91,2.06,92.14,4.77,99.89,22.18,149.71,40.36,199.26,57.77,249.08Z"/><path d="M529.4,108.77c10-1,10.83,4.2,10.67,12.19-.43,20.84-.14,41.7-.15,62.55s-.09,41.7,0,62.55c.09,15.56,3.28,18.29,20.61,18.42,20.47.15,23.57-2,23.65-18.36.18-37.83,0-75.65.06-113.47,0-22.75,0-23.21,22.42-23.58,12.54-.21,17.55-5.84,17.3-17.79-.25-11.6-5.94-16.72-17.47-15.94-4.84.32-9.71,0-14.56,0-3.63,0-6.28-.64-7.6-4.9-5.9-19,5.68-34.55,25.6-34,13.61.39,18.21-4.46,19.82-20C631.09,3.9,622.22,2.15,613.33.93,573.12-4.56,536.91,14,540,63.3c.49,7.76-.18,13.41-10.43,12.2-12-1.4-18.19,4-18.24,16.53S517.48,110,529.4,108.77Z"/><path d="M672.43,264.47c18.86,0,22-2.49,22.07-18.4.11-35.39,0-70.79,0-106.18,0-36.36.06-72.73,0-109.09,0-17.54-2-19.08-22.66-19.06-18.86,0-21.33,2.06-21.34,19q-.11,107.64,0,215.28C650.52,262.13,653.47,264.47,672.43,264.47Z"/><path d="M410.44,264.49c19.16,0,21.87-2.1,21.95-18.42.16-30.06-.2-60.12.16-90.18.34-28.67,19.18-46.48,47.68-43.9,12.14,1.1,15.68-3.24,16-14.11.65-19.65-2.17-24.84-15.38-25.13-22.28-.48-37.25,10.83-48.49,34.11-.41-6.55-.59-8.47-.64-10.39-.5-19.68-2.32-21.3-23.81-21.08-17.52.17-19.6,2.27-19.62,20.7q-.07,74.91,0,149.82C388.41,261.78,391.86,264.48,410.44,264.49Z"/></g></g></svg>