<svg fill="#8a8a8a" xmlns="http://www.w3.org/2000/svg" xmlns:xlink="http://www.w3.org/1999/xlink" width="1200" zoomAndPan="magnify" viewBox="0 0 900 899.99999" height="1200" preserveAspectRatio="xMidYMid meet" version="1.0"><defs><g/><clipPath id="4b3369c8bc"><path d="M 155 30 L 463 30 L 463 729.765625 L 155 729.765625 Z M 155 30 " clip-rule="nonzero"/></clipPath><clipPath id="e6489f40ec"><path d="M 462.734375 31.25 C 353.121094 21.214844 264.277344 89.460938 249.328125 181.199219 C 228.339844 310.03125 211.347656 439.523438 192.816406 568.753906 C 185.28125 621.304688 175.949219 674.71875 155.277344 728.527344 C 198.296875 733.8125 249.730469 721.644531 283.078125 701.152344 C 347.074219 661.8125 368.835938 599.757812 377.773438 528.792969 C 393.660156 402.585938 412.785156 276.785156 430.496094 150.804688 C 437.226562 95.664062 443.429688 68.78125 462.734375 31.25 " clip-rule="nonzero"/></clipPath><clipPath id="f210a681d4"><path d="M 0.0390625 0 L 307.960938 0 L 307.960938 699.765625 L 0.0390625 699.765625 Z M 0.0390625 0 " clip-rule="nonzero"/></clipPath><clipPath id="ea1f1ee940"><path d="M 307.734375 1.25 C 198.121094 -8.785156 109.277344 59.460938 94.328125 151.199219 C 73.339844 280.03125 56.347656 409.523438 37.816406 538.753906 C 30.28125 591.304688 20.949219 644.71875 0.277344 698.527344 C 43.296875 703.8125 94.730469 691.644531 128.078125 671.152344 C 192.074219 631.8125 213.835938 569.757812 222.773438 498.792969 C 238.660156 372.585938 257.785156 246.785156 275.496094 120.804688 C 282.226562 65.664062 288.429688 38.78125 307.734375 1.25 " clip-rule="nonzero"/></clipPath><clipPath id="9522737d53"><rect x="0" width="308" y="0" height="700"/></clipPath><clipPath id="2a35d7d24e"><path d="M 389 30 L 696.894531 30 L 696.894531 729.765625 L 389 729.765625 Z M 389 30 " clip-rule="nonzero"/></clipPath><clipPath id="c1601ba29a"><path d="M 483.308594 181.199219 C 462.320312 310.03125 445.328125 439.523438 426.796875 568.753906 C 419.261719 621.304688 409.929688 674.71875 389.257812 728.527344 C 432.277344 733.8125 483.710938 721.644531 517.058594 701.152344 C 581.054688 661.8125 602.816406 599.757812 611.753906 528.792969 C 627.640625 402.585938 646.765625 276.785156 664.476562 150.804688 C 671.207031 95.664062 677.417969 68.78125 696.714844 31.25 C 587.09375 21.214844 498.246094 89.460938 483.308594 181.199219 " clip-rule="nonzero"/></clipPath><clipPath id="e617cdcedd"><path d="M 0.0390625 0 L 307.71875 0 L 307.71875 699.765625 L 0.0390625 699.765625 Z M 0.0390625 0 " clip-rule="nonzero"/></clipPath><clipPath id="a5b77e14da"><path d="M 94.308594 151.199219 C 73.320312 280.03125 56.328125 409.523438 37.796875 538.753906 C 30.261719 591.304688 20.929688 644.71875 0.257812 698.527344 C 43.277344 703.8125 94.710938 691.644531 128.058594 671.152344 C 192.054688 631.8125 213.816406 569.757812 222.753906 498.792969 C 238.640625 372.585938 257.765625 246.785156 275.476562 120.804688 C 282.207031 65.664062 288.417969 38.78125 307.714844 1.25 C 198.09375 -8.785156 109.246094 59.460938 94.308594 151.199219 " clip-rule="nonzero"/></clipPath><clipPath id="d2fe1cc16e"><rect x="0" width="308" y="0" height="700"/></clipPath><clipPath id="50b9845d1a"><path d="M 673 36 L 891 36 L 891 407 L 673 407 Z M 673 36 " clip-rule="nonzero"/></clipPath><clipPath id="7f9b34fb9f"><path d="M 882.066406 137.566406 C 869.378906 101.484375 841.074219 71.714844 803.640625 57.214844 C 782.816406 49.152344 760.613281 44.605469 736.609375 37.765625 C 736.582031 37.929688 736.566406 38.089844 736.539062 38.242188 C 734.054688 37.550781 731.5625 36.902344 729.042969 36.289062 C 730.246094 46.117188 731.136719 54.226562 731.742188 61.265625 C 731.976562 63.929688 731.875 66.601562 731.535156 69.257812 C 731.535156 69.265625 731.535156 69.285156 731.527344 69.292969 C 730.480469 77.347656 729.410156 85.402344 728.332031 93.457031 C 726.222656 107.722656 724.191406 121.753906 722.253906 135.800781 C 719.953125 152.460938 717.691406 169.128906 715.441406 185.796875 C 709.511719 227.007812 703.445312 268.191406 697.597656 309.410156 C 696.5625 316.71875 695.554688 324.035156 694.554688 331.390625 C 692.925781 343.394531 690.089844 355.210938 686.101562 366.660156 C 682.503906 377 678.191406 389.601562 673 406.90625 C 676.589844 406.828125 680.152344 406.671875 683.699219 406.457031 C 683.824219 406.449219 683.933594 406.4375 684.050781 406.429688 C 684.25 406.421875 684.445312 406.402344 684.644531 406.386719 C 685.3125 406.339844 685.976562 406.296875 686.652344 406.242188 C 710.898438 406.296875 732.894531 407.90625 754.566406 405.910156 C 783.777344 403.21875 810.507812 391.265625 831.316406 372.769531 C 852.449219 354.671875 868.074219 330.046875 874.046875 301.132812 C 876.21875 290.644531 884.21875 244.46875 885.273438 234.875 C 886.359375 227.070312 887.324219 219.257812 888.144531 211.4375 C 888.828125 204.929688 889.410156 198.421875 889.898438 191.917969 C 891.3125 172.898438 888.402344 154.484375 882.066406 137.566406 " clip-rule="nonzero"/></clipPath><clipPath id="58d2944e1d"><path d="M 0 0.238281 L 218 0.238281 L 218 371 L 0 371 Z M 0 0.238281 " clip-rule="nonzero"/></clipPath><clipPath id="ceebc54cec"><path d="M 209.066406 101.566406 C 196.378906 65.484375 168.074219 35.714844 130.640625 21.214844 C 109.816406 13.152344 87.613281 8.605469 63.609375 1.765625 C 63.582031 1.929688 63.566406 2.089844 63.539062 2.242188 C 61.054688 1.550781 58.5625 0.902344 56.042969 0.289062 C 57.246094 10.117188 58.136719 18.226562 58.742188 25.265625 C 58.976562 27.929688 58.875 30.601562 58.535156 33.257812 C 58.535156 33.265625 58.535156 33.285156 58.527344 33.292969 C 57.480469 41.347656 56.410156 49.402344 55.332031 57.457031 C 53.222656 71.722656 51.191406 85.753906 49.253906 99.800781 C 46.953125 116.460938 44.691406 133.128906 42.441406 149.796875 C 36.511719 191.007812 30.445312 232.191406 24.597656 273.410156 C 23.5625 280.71875 22.554688 288.035156 21.554688 295.390625 C 19.925781 307.394531 17.089844 319.210938 13.101562 330.660156 C 9.503906 341 5.191406 353.601562 0 370.90625 C 3.589844 370.828125 7.152344 370.671875 10.699219 370.457031 C 10.824219 370.449219 10.933594 370.4375 11.050781 370.429688 C 11.25 370.421875 11.445312 370.402344 11.644531 370.386719 C 12.3125 370.339844 12.976562 370.296875 13.652344 370.242188 C 37.898438 370.296875 59.894531 371.90625 81.566406 369.910156 C 110.777344 367.21875 137.507812 355.265625 158.316406 336.769531 C 179.449219 318.671875 195.074219 294.046875 201.046875 265.132812 C 203.21875 254.644531 211.21875 208.46875 212.273438 198.875 C 213.359375 191.070312 214.324219 183.257812 215.144531 175.4375 C 215.828125 168.929688 216.410156 162.421875 216.898438 155.917969 C 218.3125 136.898438 215.402344 118.484375 209.066406 101.566406 " clip-rule="nonzero"/></clipPath><clipPath id="cb20c05abb"><rect x="0" width="218" y="0" height="371"/></clipPath><clipPath id="74e7952149"><path d="M 8 10 L 195 10 L 195 407 L 8 407 Z M 8 10 " clip-rule="nonzero"/></clipPath><clipPath id="8e2f049fcd"><path d="M 186.128906 110.511719 C 175.042969 79.8125 152.605469 53.804688 122.914062 38.027344 C 117.820312 35.316406 112.507812 32.914062 107.011719 30.835938 C 86.113281 22.953125 63.875 18.597656 39.816406 11.964844 C 39.789062 12.125 39.773438 12.285156 39.746094 12.441406 C 37.25 11.765625 34.757812 11.144531 32.230469 10.550781 C 33.796875 22.503906 34.875 31.90625 35.542969 39.953125 C 35.335938 41.070312 35.15625 42.257812 35 43.535156 C 34.03125 51.597656 33.023438 59.664062 32.015625 67.726562 C 30.035156 82.007812 28.117188 96.058594 26.308594 110.125 C 24.148438 126.800781 22.03125 143.488281 19.925781 160.175781 C 18.433594 171.269531 13.105469 211.96875 13.105469 212.769531 C 11.457031 223.390625 10.046875 234.027344 8.9375 244.683594 C 5.851562 274.042969 13.277344 302.257812 27.929688 325.90625 C 40.429688 346.941406 58.816406 364.554688 81.433594 376.273438 C 84.554688 377.882812 87.742188 379.375 91.007812 380.761719 C 111.050781 389.242188 132.507812 394.371094 155.621094 401.667969 C 156.238281 401.921875 156.859375 402.171875 157.492188 402.40625 C 157.671875 402.488281 157.851562 402.570312 158.039062 402.640625 C 158.148438 402.6875 158.246094 402.722656 158.363281 402.777344 C 161.675781 404.054688 165.023438 405.289062 168.425781 406.449219 C 168.742188 387.296875 168.40625 373.480469 168.09375 362.167969 C 167.796875 351.269531 168.605469 340.378906 170.488281 329.644531 C 171.875 321.757812 173.230469 313.921875 174.546875 306.070312 C 178.21875 284.328125 181.816406 262.574219 185.425781 240.8125 C 185.886719 239.390625 189.710938 212.195312 190.152344 207.773438 C 191.179688 199.960938 192.070312 192.140625 192.816406 184.3125 C 193.445312 177.796875 193.976562 171.289062 194.398438 164.773438 C 195.652344 145.746094 192.582031 127.359375 186.101562 110.496094 " clip-rule="nonzero"/></clipPath><clipPath id="9a033a86dd"><path d="M 0 0.320312 L 187 0.320312 L 187 396.558594 L 0 396.558594 Z M 0 0.320312 " clip-rule="nonzero"/></clipPath><clipPath id="ad123ac254"><path d="M 178.128906 100.511719 C 167.042969 69.8125 144.605469 43.804688 114.914062 28.027344 C 109.820312 25.316406 104.507812 22.914062 99.011719 20.835938 C 78.113281 12.953125 55.875 8.597656 31.816406 1.964844 C 31.789062 2.125 31.773438 2.285156 31.746094 2.441406 C 29.25 1.765625 26.757812 1.144531 24.230469 0.550781 C 25.796875 12.503906 26.875 21.90625 27.542969 29.953125 C 27.335938 31.070312 27.15625 32.257812 27 33.535156 C 26.03125 41.597656 25.023438 49.664062 24.015625 57.726562 C 22.035156 72.007812 20.117188 86.058594 18.308594 100.125 C 16.148438 116.800781 14.03125 133.488281 11.925781 150.175781 C 10.433594 161.269531 5.105469 201.96875 5.105469 202.769531 C 3.457031 213.390625 2.046875 224.027344 0.9375 234.683594 C -2.148438 264.042969 5.277344 292.257812 19.929688 315.90625 C 32.429688 336.941406 50.816406 354.554688 73.433594 366.273438 C 76.554688 367.882812 79.742188 369.375 83.007812 370.761719 C 103.050781 379.242188 124.507812 384.371094 147.621094 391.667969 C 148.238281 391.921875 148.859375 392.171875 149.492188 392.40625 C 149.671875 392.488281 149.851562 392.570312 150.039062 392.640625 C 150.148438 392.6875 150.246094 392.722656 150.363281 392.777344 C 153.675781 394.054688 157.023438 395.289062 160.425781 396.449219 C 160.742188 377.296875 160.40625 363.480469 160.09375 352.167969 C 159.796875 341.269531 160.605469 330.378906 162.488281 319.644531 C 163.875 311.757812 165.230469 303.921875 166.546875 296.070312 C 170.21875 274.328125 173.816406 252.574219 177.425781 230.8125 C 177.886719 229.390625 181.710938 202.195312 182.152344 197.773438 C 183.179688 189.960938 184.070312 182.140625 184.816406 174.3125 C 185.445312 167.796875 185.976562 161.289062 186.398438 154.773438 C 187.652344 135.746094 184.582031 117.359375 178.101562 100.496094 " clip-rule="nonzero"/></clipPath><clipPath id="c4e3758099"><rect x="0" width="187" y="0" height="397"/></clipPath><clipPath id="14ab2d43b3"><path d="M 0.601562 48 L 80 48 L 80 150 L 0.601562 150 Z M 0.601562 48 " clip-rule="nonzero"/></clipPath><clipPath id="b6115942a6"><rect x="0" width="893" y="0" height="159"/></clipPath></defs><g clip-path="url(#4b3369c8bc)"><g clip-path="url(#e6489f40ec)"><g transform="matrix(1, 0, 0, 1, 155, 30)"><g clip-path="url(#9522737d53)"><g clip-path="url(#f210a681d4)"><g clip-path="url(#ea1f1ee940)"><rect x="-353" width="1296" fill="#8a8a8a" height="1295.999986" y="-227.999998" fill-opacity="1"/></g></g></g></g></g></g><g clip-path="url(#2a35d7d24e)"><g clip-path="url(#c1601ba29a)"><g transform="matrix(1, 0, 0, 1, 389, 30)"><g clip-path="url(#d2fe1cc16e)"><g clip-path="url(#e617cdcedd)"><g clip-path="url(#a5b77e14da)"><rect x="-587" width="1296" fill="#8a8a8a" height="1295.999986" y="-227.999998" fill-opacity="1"/></g></g></g></g></g></g><g clip-path="url(#50b9845d1a)"><g clip-path="url(#7f9b34fb9f)"><g transform="matrix(1, 0, 0, 1, 673, 36)"><g clip-path="url(#cb20c05abb)"><g clip-path="url(#58d2944e1d)"><g clip-path="url(#ceebc54cec)"><rect x="-871" width="1296" fill="#8a8a8a" height="1295.999986" y="-233.999998" fill-opacity="1"/></g></g></g></g></g></g><g clip-path="url(#74e7952149)"><g clip-path="url(#8e2f049fcd)"><g transform="matrix(1, 0, 0, 1, 8, 10)"><g clip-path="url(#c4e3758099)"><g clip-path="url(#9a033a86dd)"><g clip-path="url(#ad123ac254)"><rect x="-206" width="1296" fill="#8a8a8a" height="1295.999986" y="-207.999998" fill-opacity="1"/></g></g></g></g></g></g><g transform="matrix(1, 0, 0, 1, 3, 741)"><g clip-path="url(#b6115942a6)"><g clip-path="url(#14ab2d43b3)"><g fill="#8a8a8a" fill-opacity="1"><g transform="translate(0.754113, 149.276359)"><g><path d="M 39.3125 -50.15625 L 66.078125 -100.3125 L 78.703125 -100.3125 L 45.21875 -38.90625 L 45.21875 0 L 33.40625 0 L 33.40625 -38.359375 L 0 -100.3125 L 12.765625 -100.3125 Z M 39.3125 -50.15625 "/></g></g></g></g><g fill="#8a8a8a" fill-opacity="1"><g transform="translate(77.754247, 149.276359)"><g/></g></g><g fill="#8a8a8a" fill-opacity="1"><g transform="translate(112.564231, 149.276359)"><g><path d="M 69.703125 0 L 13.796875 0 L 13.796875 -100.3125 L 69.703125 -100.3125 L 69.703125 -89.953125 L 25.453125 -89.953125 L 25.453125 -57.640625 L 67.03125 -57.640625 L 67.03125 -47.34375 L 25.453125 -47.34375 L 25.453125 -10.421875 L 69.703125 -10.421875 Z M 69.703125 0 "/></g></g></g><g fill="#8a8a8a" fill-opacity="1"><g transform="translate(189.015549, 149.276359)"><g/></g></g><g fill="#8a8a8a" fill-opacity="1"><g transform="translate(223.825533, 149.276359)"><g><path d="M 71.078125 -100.3125 L 83.640625 -100.3125 L 47.484375 0 L 35.953125 0 L 0 -100.3125 L 12.34375 -100.3125 L 35.40625 -35.40625 C 38.050781 -27.945312 40.15625 -20.695312 41.71875 -13.65625 C 43.363281 -21.0625 45.515625 -28.445312 48.171875 -35.8125 Z M 71.078125 -100.3125 "/></g></g></g><g fill="#8a8a8a" fill-opacity="1"><g transform="translate(305.765001, 149.276359)"><g/></g></g><g fill="#8a8a8a" fill-opacity="1"><g transform="translate(340.574985, 149.276359)"><g><path d="M 69.703125 0 L 13.796875 0 L 13.796875 -100.3125 L 69.703125 -100.3125 L 69.703125 -89.953125 L 25.453125 -89.953125 L 25.453125 -57.640625 L 67.03125 -57.640625 L 67.03125 -47.34375 L 25.453125 -47.34375 L 25.453125 -10.421875 L 69.703125 -10.421875 Z M 69.703125 0 "/></g></g></g><g fill="#8a8a8a" fill-opacity="1"><g transform="translate(417.026323, 149.276359)"><g/></g></g><g fill="#8a8a8a" fill-opacity="1"><g transform="translate(451.836287, 149.276359)"><g><path d="M 77.390625 -71.078125 C 77.390625 -60.921875 73.925781 -53.109375 67 -47.640625 C 60.070312 -42.179688 50.15625 -39.453125 37.25 -39.453125 L 25.453125 -39.453125 L 25.453125 0 L 13.796875 0 L 13.796875 -100.3125 L 39.796875 -100.3125 C 64.859375 -100.3125 77.390625 -90.566406 77.390625 -71.078125 Z M 25.453125 -49.46875 L 35.953125 -49.46875 C 46.285156 -49.46875 53.757812 -51.132812 58.375 -54.46875 C 63 -57.8125 65.3125 -63.164062 65.3125 -70.53125 C 65.3125 -77.164062 63.140625 -82.101562 58.796875 -85.34375 C 54.453125 -88.59375 47.679688 -90.21875 38.484375 -90.21875 L 25.453125 -90.21875 Z M 25.453125 -49.46875 "/></g></g></g><g fill="#8a8a8a" fill-opacity="1"><g transform="translate(534.736202, 149.276359)"><g/></g></g><g fill="#8a8a8a" fill-opacity="1"><g transform="translate(569.546166, 149.276359)"><g><path d="M 89.53125 -100.3125 L 89.53125 -35.40625 C 89.53125 -23.96875 86.078125 -14.976562 79.171875 -8.4375 C 72.265625 -1.894531 62.773438 1.375 50.703125 1.375 C 38.628906 1.375 29.285156 -1.914062 22.671875 -8.5 C 16.066406 -15.09375 12.765625 -24.148438 12.765625 -35.671875 L 12.765625 -100.3125 L 24.421875 -100.3125 L 24.421875 -34.859375 C 24.421875 -26.484375 26.707031 -20.050781 31.28125 -15.5625 C 35.851562 -11.082031 42.578125 -8.84375 51.453125 -8.84375 C 59.921875 -8.84375 66.441406 -11.097656 71.015625 -15.609375 C 75.585938 -20.117188 77.875 -26.578125 77.875 -34.984375 L 77.875 -100.3125 Z M 89.53125 -100.3125 "/></g></g></g><g fill="#8a8a8a" fill-opacity="1"><g transform="translate(670.145362, 149.276359)"><g/></g></g><g fill="#8a8a8a" fill-opacity="1"><g transform="translate(704.955326, 149.276359)"><g><path d="M 69.703125 0 L 13.796875 0 L 13.796875 -100.3125 L 69.703125 -100.3125 L 69.703125 -89.953125 L 25.453125 -89.953125 L 25.453125 -57.640625 L 67.03125 -57.640625 L 67.03125 -47.34375 L 25.453125 -47.34375 L 25.453125 -10.421875 L 69.703125 -10.421875 Z M 69.703125 0 "/></g></g></g><g fill="#8a8a8a" fill-opacity="1"><g transform="translate(781.406665, 149.276359)"><g/></g></g><g fill="#8a8a8a" fill-opacity="1"><g transform="translate(816.216629, 149.276359)"><g><path d="M 70.390625 -26.6875 C 70.390625 -17.863281 67.1875 -10.976562 60.78125 -6.03125 C 54.382812 -1.09375 45.695312 1.375 34.71875 1.375 C 22.820312 1.375 13.671875 -0.15625 7.265625 -3.21875 L 7.265625 -14.484375 C 11.390625 -12.742188 15.875 -11.367188 20.71875 -10.359375 C 25.570312 -9.347656 30.375 -8.84375 35.125 -8.84375 C 42.90625 -8.84375 48.757812 -10.316406 52.6875 -13.265625 C 56.625 -16.222656 58.59375 -20.332031 58.59375 -25.59375 C 58.59375 -29.070312 57.894531 -31.921875 56.5 -34.140625 C 55.101562 -36.359375 52.769531 -38.40625 49.5 -40.28125 C 46.226562 -42.15625 41.253906 -44.28125 34.578125 -46.65625 C 25.242188 -50 18.578125 -53.957031 14.578125 -58.53125 C 10.578125 -63.101562 8.578125 -69.070312 8.578125 -76.4375 C 8.578125 -84.164062 11.476562 -90.316406 17.28125 -94.890625 C 23.09375 -99.460938 30.78125 -101.75 40.34375 -101.75 C 50.3125 -101.75 59.484375 -99.921875 67.859375 -96.265625 L 64.21875 -86.109375 C 55.9375 -89.585938 47.882812 -91.328125 40.0625 -91.328125 C 33.894531 -91.328125 29.070312 -90 25.59375 -87.34375 C 22.113281 -84.6875 20.375 -81.003906 20.375 -76.296875 C 20.375 -72.816406 21.015625 -69.96875 22.296875 -67.75 C 23.578125 -65.53125 25.738281 -63.492188 28.78125 -61.640625 C 31.820312 -59.796875 36.476562 -57.75 42.75 -55.5 C 53.269531 -51.75 60.503906 -47.722656 64.453125 -43.421875 C 68.410156 -39.128906 70.390625 -33.550781 70.390625 -26.6875 Z M 70.390625 -26.6875 "/></g></g></g></g></g></svg>