<svg xmlns="http://www.w3.org/2000/svg" xmlns:xlink="http://www.w3.org/1999/xlink" width="454" zoomAndPan="magnify" viewBox="0 0 340.5 84.749999" height="113" preserveAspectRatio="xMidYMid meet" version="1.0"><defs><g/><clipPath id="8f40a7289e"><path d="M 12.339844 3.535156 L 36.515625 3.535156 L 36.515625 58.445312 L 12.339844 58.445312 Z M 12.339844 3.535156 " clip-rule="nonzero"/></clipPath><clipPath id="d44e265c43"><path d="M 36.484375 3.675781 C 27.890625 2.890625 20.921875 8.242188 19.75 15.433594 C 18.105469 25.535156 16.773438 35.6875 15.320312 45.820312 C 14.730469 49.941406 13.996094 54.128906 12.378906 58.347656 C 15.75 58.761719 19.78125 57.808594 22.398438 56.203125 C 27.414062 53.117188 29.121094 48.253906 29.820312 42.6875 C 31.066406 32.792969 32.566406 22.929688 33.957031 13.050781 C 34.484375 8.726562 34.96875 6.621094 36.484375 3.675781 " clip-rule="nonzero"/></clipPath><clipPath id="26dde9f6d5"><path d="M 0.339844 0.535156 L 24.515625 0.535156 L 24.515625 55.445312 L 0.339844 55.445312 Z M 0.339844 0.535156 " clip-rule="nonzero"/></clipPath><clipPath id="a80946ea80"><path d="M 24.484375 0.675781 C 15.890625 -0.109375 8.921875 5.242188 7.75 12.433594 C 6.105469 22.535156 4.773438 32.6875 3.320312 42.820312 C 2.730469 46.941406 1.996094 51.128906 0.378906 55.347656 C 3.75 55.761719 7.78125 54.808594 10.398438 53.203125 C 15.414062 50.117188 17.121094 45.253906 17.820312 39.6875 C 19.066406 29.792969 20.566406 19.929688 21.957031 10.050781 C 22.484375 5.726562 22.96875 3.621094 24.484375 0.675781 " clip-rule="nonzero"/></clipPath><clipPath id="65d0625527"><rect x="0" width="25" y="0" height="56"/></clipPath><clipPath id="f04c4f56fc"><path d="M 30.664062 3.535156 L 54.84375 3.535156 L 54.84375 58.445312 L 30.664062 58.445312 Z M 30.664062 3.535156 " clip-rule="nonzero"/></clipPath><clipPath id="d91ad3e615"><path d="M 38.097656 15.433594 C 36.453125 25.535156 35.117188 35.6875 33.664062 45.820312 C 33.074219 49.941406 32.34375 54.128906 30.722656 58.347656 C 34.097656 58.761719 38.128906 57.808594 40.742188 56.203125 C 45.761719 53.117188 47.46875 48.253906 48.167969 42.6875 C 49.414062 32.792969 50.914062 22.929688 52.300781 13.050781 C 52.828125 8.726562 53.316406 6.621094 54.828125 3.675781 C 46.234375 2.890625 39.269531 8.242188 38.097656 15.433594 " clip-rule="nonzero"/></clipPath><clipPath id="1c331ccf0c"><path d="M 0.664062 0.535156 L 24.84375 0.535156 L 24.84375 55.445312 L 0.664062 55.445312 Z M 0.664062 0.535156 " clip-rule="nonzero"/></clipPath><clipPath id="376e5c3ca9"><path d="M 8.097656 12.433594 C 6.453125 22.535156 5.117188 32.6875 3.664062 42.820312 C 3.074219 46.941406 2.34375 51.128906 0.722656 55.347656 C 4.097656 55.761719 8.128906 54.808594 10.742188 53.203125 C 15.761719 50.117188 17.46875 45.253906 18.167969 39.6875 C 19.414062 29.792969 20.914062 19.929688 22.300781 10.050781 C 22.828125 5.726562 23.316406 3.621094 24.828125 0.675781 C 16.234375 -0.109375 9.269531 5.242188 8.097656 12.433594 " clip-rule="nonzero"/></clipPath><clipPath id="0d540bba53"><rect x="0" width="25" y="0" height="56"/></clipPath><clipPath id="962d0c878f"><path d="M 52.941406 4.027344 L 70.070312 4.027344 L 70.070312 33.140625 L 52.941406 33.140625 Z M 52.941406 4.027344 " clip-rule="nonzero"/></clipPath><clipPath id="4914718de4"><path d="M 69.363281 12.011719 C 68.367188 9.183594 66.148438 6.851562 63.214844 5.714844 C 61.582031 5.082031 59.839844 4.726562 57.957031 4.1875 C 57.957031 4.199219 57.953125 4.214844 57.953125 4.226562 C 57.757812 4.171875 57.5625 4.121094 57.363281 4.074219 C 57.457031 4.84375 57.527344 5.480469 57.574219 6.03125 C 57.59375 6.238281 57.585938 6.449219 57.558594 6.65625 C 57.558594 6.65625 57.558594 6.660156 57.558594 6.660156 C 57.476562 7.292969 57.394531 7.921875 57.308594 8.554688 C 57.144531 9.671875 56.984375 10.773438 56.832031 11.875 C 56.652344 13.179688 56.472656 14.488281 56.296875 15.796875 C 55.832031 19.027344 55.355469 22.253906 54.898438 25.488281 C 54.816406 26.058594 54.738281 26.632812 54.660156 27.210938 C 54.53125 28.152344 54.308594 29.078125 53.996094 29.976562 C 53.714844 30.785156 53.378906 31.773438 52.96875 33.132812 C 53.25 33.125 53.53125 33.113281 53.808594 33.097656 C 53.820312 33.09375 53.828125 33.09375 53.835938 33.09375 C 53.851562 33.09375 53.867188 33.09375 53.882812 33.089844 C 53.933594 33.085938 53.988281 33.082031 54.039062 33.078125 C 55.941406 33.082031 57.667969 33.210938 59.367188 33.054688 C 61.65625 32.84375 63.75 31.90625 65.382812 30.453125 C 67.039062 29.035156 68.265625 27.105469 68.734375 24.839844 C 68.902344 24.015625 69.53125 20.394531 69.613281 19.644531 C 69.699219 19.03125 69.773438 18.417969 69.839844 17.804688 C 69.890625 17.296875 69.9375 16.785156 69.976562 16.273438 C 70.085938 14.785156 69.859375 13.339844 69.363281 12.011719 " clip-rule="nonzero"/></clipPath><clipPath id="37620b56f4"><path d="M 0.941406 0.03125 L 18.070312 0.03125 L 18.070312 29.140625 L 0.941406 29.140625 Z M 0.941406 0.03125 " clip-rule="nonzero"/></clipPath><clipPath id="32b9d567ce"><path d="M 17.363281 8.011719 C 16.367188 5.183594 14.148438 2.851562 11.214844 1.714844 C 9.582031 1.082031 7.839844 0.726562 5.957031 0.1875 C 5.957031 0.199219 5.953125 0.214844 5.953125 0.226562 C 5.757812 0.171875 5.5625 0.121094 5.363281 0.0742188 C 5.457031 0.84375 5.527344 1.480469 5.574219 2.03125 C 5.59375 2.238281 5.585938 2.449219 5.558594 2.65625 C 5.558594 2.65625 5.558594 2.660156 5.558594 2.660156 C 5.476562 3.292969 5.394531 3.921875 5.308594 4.554688 C 5.144531 5.671875 4.984375 6.773438 4.832031 7.875 C 4.652344 9.179688 4.472656 10.488281 4.296875 11.796875 C 3.832031 15.027344 3.355469 18.253906 2.898438 21.488281 C 2.816406 22.058594 2.738281 22.632812 2.660156 23.210938 C 2.53125 24.152344 2.308594 25.078125 1.996094 25.976562 C 1.714844 26.785156 1.378906 27.773438 0.96875 29.132812 C 1.25 29.125 1.53125 29.113281 1.808594 29.097656 C 1.820312 29.09375 1.828125 29.09375 1.835938 29.09375 C 1.851562 29.09375 1.867188 29.09375 1.882812 29.089844 C 1.933594 29.085938 1.988281 29.082031 2.039062 29.078125 C 3.941406 29.082031 5.667969 29.210938 7.367188 29.054688 C 9.65625 28.84375 11.75 27.90625 13.382812 26.453125 C 15.039062 25.035156 16.265625 23.105469 16.734375 20.839844 C 16.902344 20.015625 17.53125 16.394531 17.613281 15.644531 C 17.699219 15.03125 17.773438 14.417969 17.839844 13.804688 C 17.890625 13.296875 17.9375 12.785156 17.976562 12.273438 C 18.085938 10.785156 17.859375 9.339844 17.363281 8.011719 " clip-rule="nonzero"/></clipPath><clipPath id="4a9a18fdb4"><rect x="0" width="19" y="0" height="30"/></clipPath><clipPath id="79d4dd12cb"><path d="M 0.777344 2 L 15.511719 2 L 15.511719 33.140625 L 0.777344 33.140625 Z M 0.777344 2 " clip-rule="nonzero"/></clipPath><clipPath id="9de4cc9e8e"><path d="M 14.796875 9.890625 C 13.925781 7.484375 12.167969 5.445312 9.839844 4.207031 C 9.441406 3.996094 9.023438 3.808594 8.59375 3.644531 C 6.953125 3.027344 5.210938 2.683594 3.324219 2.164062 C 3.320312 2.179688 3.320312 2.191406 3.320312 2.203125 C 3.125 2.148438 2.925781 2.101562 2.730469 2.054688 C 2.851562 2.992188 2.9375 3.730469 2.988281 4.359375 C 2.972656 4.449219 2.957031 4.539062 2.945312 4.640625 C 2.871094 5.273438 2.792969 5.90625 2.710938 6.539062 C 2.558594 7.65625 2.40625 8.757812 2.265625 9.863281 C 2.09375 11.167969 1.929688 12.476562 1.765625 13.785156 C 1.648438 14.65625 1.230469 17.847656 1.230469 17.910156 C 1.101562 18.742188 0.988281 19.578125 0.902344 20.410156 C 0.660156 22.714844 1.242188 24.925781 2.390625 26.78125 C 3.371094 28.429688 4.8125 29.8125 6.585938 30.730469 C 6.832031 30.855469 7.082031 30.972656 7.339844 31.082031 C 8.910156 31.746094 10.589844 32.148438 12.402344 32.722656 C 12.453125 32.742188 12.5 32.761719 12.550781 32.777344 C 12.566406 32.785156 12.578125 32.792969 12.59375 32.796875 C 12.601562 32.800781 12.609375 32.804688 12.617188 32.808594 C 12.878906 32.90625 13.140625 33.003906 13.40625 33.09375 C 13.433594 31.59375 13.40625 30.511719 13.382812 29.625 C 13.359375 28.769531 13.421875 27.914062 13.570312 27.074219 C 13.679688 26.457031 13.785156 25.839844 13.886719 25.226562 C 14.175781 23.519531 14.457031 21.816406 14.742188 20.109375 C 14.777344 19.996094 15.078125 17.863281 15.113281 17.519531 C 15.191406 16.90625 15.261719 16.292969 15.320312 15.679688 C 15.371094 15.167969 15.410156 14.65625 15.445312 14.148438 C 15.542969 12.65625 15.300781 11.214844 14.792969 9.890625 " clip-rule="nonzero"/></clipPath><clipPath id="db46513931"><path d="M 0.777344 0 L 15.511719 0 L 15.511719 31.140625 L 0.777344 31.140625 Z M 0.777344 0 " clip-rule="nonzero"/></clipPath><clipPath id="573dc26d08"><path d="M 14.796875 7.890625 C 13.925781 5.484375 12.167969 3.445312 9.839844 2.207031 C 9.441406 1.996094 9.023438 1.808594 8.59375 1.644531 C 6.953125 1.027344 5.210938 0.683594 3.324219 0.164062 C 3.320312 0.179688 3.320312 0.191406 3.320312 0.203125 C 3.125 0.148438 2.925781 0.101562 2.730469 0.0546875 C 2.851562 0.992188 2.9375 1.730469 2.988281 2.359375 C 2.972656 2.449219 2.957031 2.539062 2.945312 2.640625 C 2.871094 3.273438 2.792969 3.90625 2.710938 4.539062 C 2.558594 5.65625 2.40625 6.757812 2.265625 7.863281 C 2.09375 9.167969 1.929688 10.476562 1.765625 11.785156 C 1.648438 12.65625 1.230469 15.847656 1.230469 15.910156 C 1.101562 16.742188 0.988281 17.578125 0.902344 18.410156 C 0.660156 20.714844 1.242188 22.925781 2.390625 24.78125 C 3.371094 26.429688 4.8125 27.8125 6.585938 28.730469 C 6.832031 28.855469 7.082031 28.972656 7.339844 29.082031 C 8.910156 29.746094 10.589844 30.148438 12.402344 30.722656 C 12.453125 30.742188 12.5 30.761719 12.550781 30.777344 C 12.566406 30.785156 12.578125 30.792969 12.59375 30.796875 C 12.601562 30.800781 12.609375 30.804688 12.617188 30.808594 C 12.878906 30.90625 13.140625 31.003906 13.40625 31.09375 C 13.433594 29.59375 13.40625 28.511719 13.382812 27.625 C 13.359375 26.769531 13.421875 25.914062 13.570312 25.074219 C 13.679688 24.457031 13.785156 23.839844 13.886719 23.226562 C 14.175781 21.519531 14.457031 19.816406 14.742188 18.109375 C 14.777344 17.996094 15.078125 15.863281 15.113281 15.519531 C 15.191406 14.90625 15.261719 14.292969 15.320312 13.679688 C 15.371094 13.167969 15.410156 12.65625 15.445312 12.148438 C 15.542969 10.65625 15.300781 9.214844 14.792969 7.890625 " clip-rule="nonzero"/></clipPath><clipPath id="4080b84f92"><rect x="0" width="16" y="0" height="32"/></clipPath><clipPath id="064261b2af"><path d="M 73 0.441406 L 324.433594 0.441406 L 324.433594 58.832031 L 73 58.832031 Z M 73 0.441406 " clip-rule="nonzero"/></clipPath><clipPath id="1177d0e5fc"><rect x="0" width="252" y="0" height="59"/></clipPath><clipPath id="822ccea0aa"><rect x="0" width="325" y="0" height="59"/></clipPath></defs><g transform="matrix(1, 0, 0, 1, 7, 12)"><g clip-path="url(#822ccea0aa)"><g clip-path="url(#8f40a7289e)"><g clip-path="url(#d44e265c43)"><g transform="matrix(1, 0, 0, 1, 12, 3)"><g clip-path="url(#65d0625527)"><g clip-path="url(#26dde9f6d5)"><g clip-path="url(#a80946ea80)"><path fill="#000000" d="M -11.503906 -1.296875 L 58.351562 -1.296875 L 58.351562 55.796875 L -11.503906 55.796875 Z M -11.503906 -1.296875 " fill-opacity="1" fill-rule="nonzero"/></g></g></g></g></g></g><g clip-path="url(#f04c4f56fc)"><g clip-path="url(#d91ad3e615)"><g transform="matrix(1, 0, 0, 1, 30, 3)"><g clip-path="url(#0d540bba53)"><g clip-path="url(#1c331ccf0c)"><g clip-path="url(#376e5c3ca9)"><path fill="#000000" d="M -29.503906 -1.296875 L 40.351562 -1.296875 L 40.351562 55.796875 L -29.503906 55.796875 Z M -29.503906 -1.296875 " fill-opacity="1" fill-rule="nonzero"/></g></g></g></g></g></g><g clip-path="url(#962d0c878f)"><g clip-path="url(#4914718de4)"><g transform="matrix(1, 0, 0, 1, 52, 4)"><g clip-path="url(#4a9a18fdb4)"><g clip-path="url(#37620b56f4)"><g clip-path="url(#32b9d567ce)"><path fill="#000000" d="M -51.503906 -2.296875 L 18.351562 -2.296875 L 18.351562 54.796875 L -51.503906 54.796875 Z M -51.503906 -2.296875 " fill-opacity="1" fill-rule="nonzero"/></g></g></g></g></g></g><g clip-path="url(#79d4dd12cb)"><g clip-path="url(#9de4cc9e8e)"><g transform="matrix(1, 0, 0, 1, 0, 2)"><g clip-path="url(#4080b84f92)"><g clip-path="url(#db46513931)"><g clip-path="url(#573dc26d08)"><path fill="#000000" d="M 0.496094 -0.296875 L 70.351562 -0.296875 L 70.351562 56.796875 L 0.496094 56.796875 Z M 0.496094 -0.296875 " fill-opacity="1" fill-rule="nonzero"/></g></g></g></g></g></g><g clip-path="url(#064261b2af)"><g transform="matrix(1, 0, 0, 1, 73, 0.000000000000001776)"><g clip-path="url(#1177d0e5fc)"><g fill="#000000" fill-opacity="1"><g transform="translate(0.628133, 44.822741)"><g><path d="M 32.671875 -32.71875 C 33.078125 -32.71875 33.382812 -32.582031 33.59375 -32.3125 C 33.8125 -32.050781 33.800781 -31.65625 33.5625 -31.125 C 33.5 -30.96875 33.253906 -30.492188 32.828125 -29.703125 C 32.410156 -28.910156 31.878906 -27.894531 31.234375 -26.65625 C 30.597656 -25.425781 29.90625 -24.101562 29.15625 -22.6875 C 28.414062 -21.269531 27.675781 -19.859375 26.9375 -18.453125 C 26.207031 -17.054688 25.535156 -15.773438 24.921875 -14.609375 C 24.316406 -13.441406 23.828125 -12.503906 23.453125 -11.796875 C 23.085938 -11.097656 22.90625 -10.75 22.90625 -10.75 L 22.90625 -1.171875 C 22.90625 -0.859375 22.796875 -0.582031 22.578125 -0.34375 C 22.359375 -0.113281 22.078125 0 21.734375 0 L 14.390625 0 C 14.078125 0 13.8125 -0.113281 13.59375 -0.34375 C 13.375 -0.582031 13.265625 -0.859375 13.265625 -1.171875 L 13.265625 -10.75 C 13.265625 -10.75 13.078125 -11.097656 12.703125 -11.796875 C 12.335938 -12.503906 11.847656 -13.441406 11.234375 -14.609375 C 10.628906 -15.773438 9.957031 -17.054688 9.21875 -18.453125 C 8.488281 -19.859375 7.75 -21.273438 7 -22.703125 C 6.257812 -24.140625 5.5625 -25.472656 4.90625 -26.703125 C 4.25 -27.929688 3.707031 -28.953125 3.28125 -29.765625 C 2.863281 -30.578125 2.628906 -31.0625 2.578125 -31.21875 C 2.328125 -31.75 2.304688 -32.128906 2.515625 -32.359375 C 2.734375 -32.597656 3.046875 -32.71875 3.453125 -32.71875 L 11.078125 -32.71875 C 11.765625 -32.71875 12.222656 -32.59375 12.453125 -32.34375 C 12.691406 -32.09375 12.914062 -31.65625 13.125 -31.03125 C 13.1875 -30.875 13.394531 -30.398438 13.75 -29.609375 C 14.113281 -28.816406 14.535156 -27.875 15.015625 -26.78125 C 15.503906 -25.6875 15.984375 -24.609375 16.453125 -23.546875 C 16.921875 -22.492188 17.3125 -21.613281 17.625 -20.90625 C 17.9375 -20.207031 18.09375 -19.859375 18.09375 -19.859375 C 18.09375 -19.859375 18.242188 -20.21875 18.546875 -20.9375 C 18.859375 -21.65625 19.25 -22.539062 19.71875 -23.59375 C 20.1875 -24.65625 20.65625 -25.734375 21.125 -26.828125 C 21.59375 -27.921875 22.003906 -28.863281 22.359375 -29.65625 C 22.722656 -30.445312 22.9375 -30.90625 23 -31.03125 C 23.238281 -31.65625 23.472656 -32.09375 23.703125 -32.34375 C 23.941406 -32.59375 24.40625 -32.71875 25.09375 -32.71875 Z M 32.671875 -32.71875 "/></g></g></g><g fill="#000000" fill-opacity="1"><g transform="translate(36.195917, 44.822741)"><g><path d="M 25 -8.03125 C 25.34375 -8.03125 25.625 -7.921875 25.84375 -7.703125 C 26.0625 -7.492188 26.171875 -7.21875 26.171875 -6.875 L 26.171875 -1.171875 C 26.171875 -0.859375 26.0625 -0.582031 25.84375 -0.34375 C 25.625 -0.113281 25.34375 0 25 0 L 3.5 0 C 3.1875 0 2.914062 -0.113281 2.6875 -0.34375 C 2.457031 -0.582031 2.34375 -0.859375 2.34375 -1.171875 L 2.34375 -31.546875 C 2.34375 -31.890625 2.457031 -32.171875 2.6875 -32.390625 C 2.914062 -32.609375 3.1875 -32.71875 3.5 -32.71875 L 24.859375 -32.71875 C 25.171875 -32.71875 25.441406 -32.609375 25.671875 -32.390625 C 25.910156 -32.171875 26.03125 -31.890625 26.03125 -31.546875 L 26.03125 -25.84375 C 26.03125 -25.53125 25.910156 -25.253906 25.671875 -25.015625 C 25.441406 -24.785156 25.171875 -24.671875 24.859375 -24.671875 L 11.96875 -24.671875 L 11.96875 -20.375 L 22.4375 -20.375 C 22.75 -20.375 23.019531 -20.265625 23.25 -20.046875 C 23.476562 -19.828125 23.59375 -19.546875 23.59375 -19.203125 L 23.59375 -13.5 C 23.59375 -13.1875 23.476562 -12.914062 23.25 -12.6875 C 23.019531 -12.457031 22.75 -12.34375 22.4375 -12.34375 L 11.96875 -12.34375 L 11.96875 -8.03125 Z M 25 -8.03125 "/></g></g></g><g fill="#000000" fill-opacity="1"><g transform="translate(64.145354, 44.822741)"><g><path d="M 35.46875 -32.71875 C 35.84375 -32.71875 36.125 -32.578125 36.3125 -32.296875 C 36.5 -32.015625 36.5 -31.609375 36.3125 -31.078125 C 36.25 -30.921875 36 -30.28125 35.5625 -29.15625 C 35.125 -28.039062 34.570312 -26.609375 33.90625 -24.859375 C 33.238281 -23.117188 32.503906 -21.210938 31.703125 -19.140625 C 30.910156 -17.066406 30.117188 -15 29.328125 -12.9375 C 28.535156 -10.882812 27.800781 -8.984375 27.125 -7.234375 C 26.457031 -5.492188 25.910156 -4.078125 25.484375 -2.984375 C 25.066406 -1.898438 24.828125 -1.296875 24.765625 -1.171875 C 24.609375 -0.765625 24.4375 -0.46875 24.25 -0.28125 C 24.0625 -0.09375 23.753906 0 23.328125 0 L 15.46875 0 C 15.0625 0 14.753906 -0.09375 14.546875 -0.28125 C 14.347656 -0.46875 14.15625 -0.765625 13.96875 -1.171875 C 13.90625 -1.296875 13.664062 -1.898438 13.25 -2.984375 C 12.832031 -4.078125 12.285156 -5.488281 11.609375 -7.21875 C 10.941406 -8.945312 10.207031 -10.835938 9.40625 -12.890625 C 8.613281 -14.953125 7.828125 -17.019531 7.046875 -19.09375 C 6.273438 -21.164062 5.550781 -23.070312 4.875 -24.8125 C 4.207031 -26.5625 3.65625 -28.003906 3.21875 -29.140625 C 2.789062 -30.273438 2.546875 -30.921875 2.484375 -31.078125 C 2.296875 -31.609375 2.285156 -32.015625 2.453125 -32.296875 C 2.617188 -32.578125 2.90625 -32.71875 3.3125 -32.71875 L 10.9375 -32.71875 C 11.625 -32.71875 12.082031 -32.59375 12.3125 -32.34375 C 12.550781 -32.09375 12.773438 -31.65625 12.984375 -31.03125 C 13.078125 -30.84375 13.328125 -30.140625 13.734375 -28.921875 C 14.140625 -27.710938 14.65625 -26.1875 15.28125 -24.34375 C 15.90625 -22.507812 16.570312 -20.515625 17.28125 -18.359375 C 18 -16.210938 18.703125 -14.113281 19.390625 -12.0625 C 20.078125 -14.113281 20.78125 -16.210938 21.5 -18.359375 C 22.21875 -20.515625 22.878906 -22.507812 23.484375 -24.34375 C 24.085938 -26.1875 24.59375 -27.710938 25 -28.921875 C 25.40625 -30.140625 25.65625 -30.84375 25.75 -31.03125 C 26 -31.65625 26.238281 -32.09375 26.46875 -32.34375 C 26.707031 -32.59375 27.171875 -32.71875 27.859375 -32.71875 Z M 35.46875 -32.71875 "/></g></g></g><g fill="#000000" fill-opacity="1"><g transform="translate(102.377228, 44.822741)"><g><path d="M 25 -8.03125 C 25.34375 -8.03125 25.625 -7.921875 25.84375 -7.703125 C 26.0625 -7.492188 26.171875 -7.21875 26.171875 -6.875 L 26.171875 -1.171875 C 26.171875 -0.859375 26.0625 -0.582031 25.84375 -0.34375 C 25.625 -0.113281 25.34375 0 25 0 L 3.5 0 C 3.1875 0 2.914062 -0.113281 2.6875 -0.34375 C 2.457031 -0.582031 2.34375 -0.859375 2.34375 -1.171875 L 2.34375 -31.546875 C 2.34375 -31.890625 2.457031 -32.171875 2.6875 -32.390625 C 2.914062 -32.609375 3.1875 -32.71875 3.5 -32.71875 L 24.859375 -32.71875 C 25.171875 -32.71875 25.441406 -32.609375 25.671875 -32.390625 C 25.910156 -32.171875 26.03125 -31.890625 26.03125 -31.546875 L 26.03125 -25.84375 C 26.03125 -25.53125 25.910156 -25.253906 25.671875 -25.015625 C 25.441406 -24.785156 25.171875 -24.671875 24.859375 -24.671875 L 11.96875 -24.671875 L 11.96875 -20.375 L 22.4375 -20.375 C 22.75 -20.375 23.019531 -20.265625 23.25 -20.046875 C 23.476562 -19.828125 23.59375 -19.546875 23.59375 -19.203125 L 23.59375 -13.5 C 23.59375 -13.1875 23.476562 -12.914062 23.25 -12.6875 C 23.019531 -12.457031 22.75 -12.34375 22.4375 -12.34375 L 11.96875 -12.34375 L 11.96875 -8.03125 Z M 25 -8.03125 "/></g></g></g><g fill="#000000" fill-opacity="1"><g transform="translate(130.326664, 44.822741)"><g><path d="M 15.234375 -32.71875 C 18.472656 -32.71875 21.210938 -32.171875 23.453125 -31.078125 C 25.703125 -29.984375 27.398438 -28.507812 28.546875 -26.65625 C 29.703125 -24.800781 30.28125 -22.707031 30.28125 -20.375 C 30.28125 -18.726562 30.015625 -17.125 29.484375 -15.5625 C 28.953125 -14 28.09375 -12.601562 26.90625 -11.375 C 25.726562 -10.144531 24.179688 -9.171875 22.265625 -8.453125 C 20.347656 -7.742188 18.003906 -7.390625 15.234375 -7.390625 L 12.015625 -7.390625 L 12.015625 -1.171875 C 12.015625 -0.859375 11.894531 -0.582031 11.65625 -0.34375 C 11.425781 -0.113281 11.15625 0 10.84375 0 L 3.5 0 C 3.1875 0 2.914062 -0.113281 2.6875 -0.34375 C 2.457031 -0.582031 2.34375 -0.859375 2.34375 -1.171875 L 2.34375 -31.546875 C 2.34375 -31.859375 2.457031 -32.128906 2.6875 -32.359375 C 2.914062 -32.597656 3.1875 -32.71875 3.5 -32.71875 Z M 14.625 -15.421875 C 15.90625 -15.421875 16.925781 -15.597656 17.6875 -15.953125 C 18.445312 -16.316406 19.019531 -16.769531 19.40625 -17.3125 C 19.800781 -17.863281 20.0625 -18.398438 20.1875 -18.921875 C 20.3125 -19.453125 20.375 -19.90625 20.375 -20.28125 C 20.375 -20.78125 20.222656 -21.375 19.921875 -22.0625 C 19.628906 -22.75 19.070312 -23.351562 18.25 -23.875 C 17.425781 -24.40625 16.1875 -24.671875 14.53125 -24.671875 L 12.015625 -24.671875 L 12.015625 -15.421875 Z M 14.625 -15.421875 "/></g></g></g><g fill="#000000" fill-opacity="1"><g transform="translate(162.389068, 44.822741)"><g><path d="M 30.65625 -32.71875 C 31 -32.71875 31.28125 -32.609375 31.5 -32.390625 C 31.71875 -32.171875 31.828125 -31.890625 31.828125 -31.546875 L 31.828125 -15.28125 C 31.828125 -12.289062 31.453125 -9.773438 30.703125 -7.734375 C 29.953125 -5.691406 28.90625 -4.0625 27.5625 -2.84375 C 26.226562 -1.632812 24.664062 -0.765625 22.875 -0.234375 C 21.082031 0.296875 19.160156 0.5625 17.109375 0.5625 C 15.046875 0.5625 13.117188 0.296875 11.328125 -0.234375 C 9.535156 -0.765625 7.960938 -1.632812 6.609375 -2.84375 C 5.253906 -4.0625 4.203125 -5.691406 3.453125 -7.734375 C 2.710938 -9.773438 2.34375 -12.289062 2.34375 -15.28125 L 2.34375 -31.546875 C 2.34375 -31.890625 2.457031 -32.171875 2.6875 -32.390625 C 2.914062 -32.609375 3.1875 -32.71875 3.5 -32.71875 L 10.84375 -32.71875 C 11.15625 -32.71875 11.421875 -32.609375 11.640625 -32.390625 C 11.859375 -32.171875 11.96875 -31.890625 11.96875 -31.546875 L 11.96875 -13.734375 C 11.96875 -11.460938 12.414062 -9.890625 13.3125 -9.015625 C 14.21875 -8.148438 15.484375 -7.71875 17.109375 -7.71875 C 18.722656 -7.71875 19.972656 -8.148438 20.859375 -9.015625 C 21.753906 -9.890625 22.203125 -11.460938 22.203125 -13.734375 L 22.203125 -31.546875 C 22.203125 -31.890625 22.316406 -32.171875 22.546875 -32.390625 C 22.785156 -32.609375 23.054688 -32.71875 23.359375 -32.71875 Z M 30.65625 -32.71875 "/></g></g></g><g fill="#000000" fill-opacity="1"><g transform="translate(195.993836, 44.822741)"><g><path d="M 25 -8.03125 C 25.34375 -8.03125 25.625 -7.921875 25.84375 -7.703125 C 26.0625 -7.492188 26.171875 -7.21875 26.171875 -6.875 L 26.171875 -1.171875 C 26.171875 -0.859375 26.0625 -0.582031 25.84375 -0.34375 C 25.625 -0.113281 25.34375 0 25 0 L 3.5 0 C 3.1875 0 2.914062 -0.113281 2.6875 -0.34375 C 2.457031 -0.582031 2.34375 -0.859375 2.34375 -1.171875 L 2.34375 -31.546875 C 2.34375 -31.890625 2.457031 -32.171875 2.6875 -32.390625 C 2.914062 -32.609375 3.1875 -32.71875 3.5 -32.71875 L 24.859375 -32.71875 C 25.171875 -32.71875 25.441406 -32.609375 25.671875 -32.390625 C 25.910156 -32.171875 26.03125 -31.890625 26.03125 -31.546875 L 26.03125 -25.84375 C 26.03125 -25.53125 25.910156 -25.253906 25.671875 -25.015625 C 25.441406 -24.785156 25.171875 -24.671875 24.859375 -24.671875 L 11.96875 -24.671875 L 11.96875 -20.375 L 22.4375 -20.375 C 22.75 -20.375 23.019531 -20.265625 23.25 -20.046875 C 23.476562 -19.828125 23.59375 -19.546875 23.59375 -19.203125 L 23.59375 -13.5 C 23.59375 -13.1875 23.476562 -12.914062 23.25 -12.6875 C 23.019531 -12.457031 22.75 -12.34375 22.4375 -12.34375 L 11.96875 -12.34375 L 11.96875 -8.03125 Z M 25 -8.03125 "/></g></g></g><g fill="#000000" fill-opacity="1"><g transform="translate(223.943272, 44.822741)"><g><path d="M 19.15625 -18.171875 C 21.71875 -16.367188 23.367188 -14.484375 24.109375 -12.515625 C 24.859375 -10.554688 24.96875 -8.566406 24.4375 -6.546875 C 24.125 -5.265625 23.492188 -4.085938 22.546875 -3.015625 C 21.597656 -1.941406 20.265625 -1.078125 18.546875 -0.421875 C 16.835938 0.234375 14.675781 0.5625 12.0625 0.5625 C 10.40625 0.5625 8.953125 0.394531 7.703125 0.0625 C 6.460938 -0.257812 5.4375 -0.628906 4.625 -1.046875 C 3.8125 -1.472656 3.203125 -1.8125 2.796875 -2.0625 C 2.398438 -2.34375 2.28125 -2.789062 2.4375 -3.40625 C 2.46875 -3.5625 2.550781 -3.90625 2.6875 -4.4375 C 2.820312 -4.96875 2.972656 -5.546875 3.140625 -6.171875 C 3.316406 -6.796875 3.46875 -7.347656 3.59375 -7.828125 C 3.71875 -8.304688 3.796875 -8.59375 3.828125 -8.6875 C 3.890625 -8.84375 4.019531 -8.984375 4.21875 -9.109375 C 4.425781 -9.234375 4.65625 -9.234375 4.90625 -9.109375 C 5.8125 -8.703125 6.753906 -8.296875 7.734375 -7.890625 C 8.710938 -7.492188 9.640625 -7.265625 10.515625 -7.203125 C 11.609375 -7.171875 12.535156 -7.300781 13.296875 -7.59375 C 14.054688 -7.882812 14.453125 -8.375 14.484375 -9.0625 C 14.484375 -9.53125 14.316406 -9.941406 13.984375 -10.296875 C 13.660156 -10.660156 13.132812 -11.097656 12.40625 -11.609375 C 11.675781 -12.128906 10.671875 -12.820312 9.390625 -13.6875 C 8.085938 -14.59375 6.875 -15.617188 5.75 -16.765625 C 4.625 -17.921875 3.765625 -19.238281 3.171875 -20.71875 C 2.585938 -22.207031 2.398438 -23.882812 2.609375 -25.75 C 2.828125 -27.5 3.363281 -28.878906 4.21875 -29.890625 C 5.082031 -30.898438 6.113281 -31.644531 7.3125 -32.125 C 8.507812 -32.613281 9.722656 -32.925781 10.953125 -33.0625 C 12.191406 -33.207031 13.273438 -33.28125 14.203125 -33.28125 C 15.859375 -33.28125 17.441406 -33.113281 18.953125 -32.78125 C 20.460938 -32.457031 21.609375 -32.15625 22.390625 -31.875 C 23.160156 -31.65625 23.472656 -31.203125 23.328125 -30.515625 C 23.296875 -30.390625 23.234375 -30.0625 23.140625 -29.53125 C 23.046875 -29 22.9375 -28.421875 22.8125 -27.796875 C 22.6875 -27.179688 22.578125 -26.613281 22.484375 -26.09375 C 22.390625 -25.582031 22.328125 -25.25 22.296875 -25.09375 C 22.234375 -24.8125 22.097656 -24.582031 21.890625 -24.40625 C 21.691406 -24.238281 21.375 -24.234375 20.9375 -24.390625 C 20.15625 -24.671875 19.28125 -24.953125 18.3125 -25.234375 C 17.351562 -25.515625 16.296875 -25.65625 15.140625 -25.65625 C 14.703125 -25.65625 14.265625 -25.566406 13.828125 -25.390625 C 13.390625 -25.222656 13.109375 -24.984375 12.984375 -24.671875 C 12.804688 -24.140625 12.878906 -23.609375 13.203125 -23.078125 C 13.523438 -22.554688 14.175781 -21.910156 15.15625 -21.140625 C 16.144531 -20.378906 17.476562 -19.390625 19.15625 -18.171875 Z M 19.15625 -18.171875 "/></g></g></g></g></g></g></g></g></svg>